G04*
G04 #@! TF.GenerationSoftware,Altium Limited,Altium Designer,19.1.8 (144)*
G04*
G04 Layer_Color=16711935*
%FSLAX24Y24*%
%MOIN*%
G70*
G01*
G75*
%ADD30R,0.0592X0.0671*%
%ADD38C,0.0812*%
%ADD39R,0.0812X0.0812*%
%ADD40R,0.0671X0.0671*%
%ADD41C,0.0671*%
%ADD42R,0.0671X0.0671*%
%ADD43R,0.0592X0.0592*%
%ADD44C,0.0592*%
%ADD45C,0.0474*%
%ADD46C,0.0611*%
%ADD47C,0.2127*%
%ADD48C,0.0946*%
%ADD49C,0.0680*%
%ADD50R,0.0592X0.0592*%
%ADD51C,0.0618*%
%ADD52R,0.0618X0.0618*%
%ADD53C,0.0492*%
D30*
X30797Y34852D02*
D03*
X30049D02*
D03*
X28986Y13671D02*
D03*
X29734D02*
D03*
D38*
X22992Y15146D02*
D03*
Y16146D02*
D03*
X39760Y17087D02*
D03*
Y16087D02*
D03*
D39*
X22992Y17146D02*
D03*
X39760Y18087D02*
D03*
D40*
X28833Y36063D02*
D03*
X40990Y36063D02*
D03*
X15136Y22589D02*
D03*
X21181Y22559D02*
D03*
D41*
X29833Y36063D02*
D03*
X30833D02*
D03*
X31833D02*
D03*
X36990Y36063D02*
D03*
X35990D02*
D03*
X34990D02*
D03*
X33990D02*
D03*
X39990D02*
D03*
X38990D02*
D03*
X37990D02*
D03*
X34370Y19390D02*
D03*
X12224Y28382D02*
D03*
Y29382D02*
D03*
Y30382D02*
D03*
Y31382D02*
D03*
Y25382D02*
D03*
Y26382D02*
D03*
Y27382D02*
D03*
X18136Y22589D02*
D03*
X17136D02*
D03*
X16136D02*
D03*
X22165Y22559D02*
D03*
X23150D02*
D03*
X24134D02*
D03*
D42*
X34370Y18012D02*
D03*
X12224Y24382D02*
D03*
D43*
X24370Y12500D02*
D03*
D44*
Y11516D02*
D03*
X40126Y24016D02*
D03*
D45*
X27874Y16339D02*
D03*
X28661D02*
D03*
X29449D02*
D03*
X30236D02*
D03*
X31024D02*
D03*
Y17283D02*
D03*
X30236D02*
D03*
X29449D02*
D03*
X28661D02*
D03*
X27874D02*
D03*
X31024Y18228D02*
D03*
X30236D02*
D03*
X29449D02*
D03*
X28661D02*
D03*
X27874D02*
D03*
X31024Y19173D02*
D03*
X30236D02*
D03*
X29449D02*
D03*
X28661D02*
D03*
X27874D02*
D03*
D46*
X15787Y17687D02*
D03*
X17756D02*
D03*
D47*
X11319Y36122D02*
D03*
X43799Y23622D02*
D03*
Y36122D02*
D03*
Y11122D02*
D03*
X11319D02*
D03*
D48*
X19606Y35157D02*
D03*
X17638D02*
D03*
X13701D02*
D03*
X15669D02*
D03*
X12283Y20246D02*
D03*
Y18278D02*
D03*
D49*
X22339Y27071D02*
D03*
X23339D02*
D03*
X24339D02*
D03*
X25339D02*
D03*
X26339D02*
D03*
X27339D02*
D03*
X28339D02*
D03*
X29339D02*
D03*
X30339D02*
D03*
X31339D02*
D03*
X32339D02*
D03*
X33339D02*
D03*
X34339D02*
D03*
X35339D02*
D03*
X36339D02*
D03*
X37339D02*
D03*
X38339D02*
D03*
X39339D02*
D03*
X40339D02*
D03*
X41339D02*
D03*
Y33071D02*
D03*
X40339D02*
D03*
X39339D02*
D03*
X38339D02*
D03*
X37339D02*
D03*
X36339D02*
D03*
X35339D02*
D03*
X34339D02*
D03*
X33339D02*
D03*
X32339D02*
D03*
X31339D02*
D03*
X30339D02*
D03*
X29339D02*
D03*
X28339D02*
D03*
X27339D02*
D03*
X26339D02*
D03*
X25339D02*
D03*
X24339D02*
D03*
X23339D02*
D03*
X22339D02*
D03*
X19508Y24142D02*
D03*
Y27165D02*
D03*
X18140Y24142D02*
D03*
Y27165D02*
D03*
D50*
X39339Y24016D02*
D03*
D51*
X34669Y22646D02*
D03*
X35669D02*
D03*
X36669D02*
D03*
X27909D02*
D03*
X28909D02*
D03*
X29909D02*
D03*
D52*
X37669D02*
D03*
X30909D02*
D03*
D53*
X35669Y21795D02*
D03*
X28909D02*
D03*
M02*
