G04*
G04 #@! TF.GenerationSoftware,Altium Limited,Altium Designer,19.1.8 (144)*
G04*
G04 Layer_Color=65535*
%FSLAX24Y24*%
%MOIN*%
G70*
G01*
G75*
%ADD10C,0.0079*%
%ADD11C,0.0098*%
%ADD12C,0.0059*%
%ADD13C,0.0050*%
%ADD14C,0.0100*%
%ADD15C,0.0039*%
%ADD16C,0.0494*%
%ADD17C,0.0197*%
%ADD18C,0.0138*%
%ADD19C,0.0236*%
%ADD20C,0.0257*%
%ADD21C,0.0213*%
D10*
X21894Y17130D02*
G03*
X21894Y17130I-79J0D01*
G01*
X38898Y18268D02*
G03*
X38898Y18268I-39J0D01*
G01*
X35945Y18701D02*
G03*
X35945Y18701I-1575J0D01*
G01*
X25610Y12008D02*
G03*
X25610Y12008I-1240J0D01*
G01*
X18484Y17687D02*
G03*
X18484Y17687I-1713J0D01*
G01*
X14855Y17688D02*
G03*
X14855Y17688I-17J0D01*
G01*
X40717Y24016D02*
G03*
X40717Y24016I-984J0D01*
G01*
X32333Y35563D02*
Y36563D01*
X28333Y35563D02*
X32333D01*
X28333Y36563D02*
X32333D01*
X28333Y35563D02*
Y36563D01*
X33490Y35563D02*
Y36563D01*
X37490D01*
X33490Y35563D02*
X37490D01*
Y36563D02*
X41490D01*
X37490Y35563D02*
X41490D01*
Y36563D01*
X11724Y31882D02*
X12724D01*
Y27882D02*
Y31882D01*
X11724Y27882D02*
Y31882D01*
X12724Y23882D02*
Y27882D01*
X11724Y23882D02*
Y27882D01*
Y23882D02*
X12724D01*
X12096Y15906D02*
Y16299D01*
X15207D01*
Y15906D02*
Y16299D01*
X12096Y13976D02*
Y14370D01*
Y13976D02*
X15207D01*
Y14370D01*
X26417Y11713D02*
Y12028D01*
X27362Y11713D02*
Y12028D01*
X14636Y22089D02*
Y23089D01*
X18636D01*
X14636Y22089D02*
X18636D01*
Y23089D01*
X34161Y21646D02*
Y23945D01*
X38177Y21646D02*
Y23945D01*
X34161D02*
X38177D01*
X36083Y21646D02*
X38177D01*
X34161D02*
X35264D01*
X27402D02*
Y23945D01*
X31417Y21646D02*
Y23945D01*
X27402D02*
X31417D01*
X29323Y21646D02*
X31417D01*
X27402D02*
X28504D01*
X25118Y21673D02*
Y23957D01*
X20217Y21673D02*
X25118D01*
X20217Y23957D02*
X25118D01*
X20217Y21673D02*
Y23957D01*
D11*
X11693Y15138D02*
G03*
X11693Y15138I-49J0D01*
G01*
X37719Y21400D02*
G03*
X37719Y21400I-49J0D01*
G01*
X30959D02*
G03*
X30959Y21400I-49J0D01*
G01*
D12*
X29577Y34646D02*
X29970D01*
X29577Y35433D02*
X29970D01*
Y34646D02*
Y35433D01*
X28494Y34646D02*
Y35433D01*
Y34646D02*
X28888D01*
X28494Y35433D02*
X28888D01*
X37374Y19408D02*
X37443Y19339D01*
Y19014D02*
Y19339D01*
X36724Y19408D02*
X37374D01*
X36655Y19339D02*
X36724Y19408D01*
X36655Y19014D02*
Y19339D01*
Y18000D02*
X36724Y17931D01*
X36655Y18000D02*
Y18325D01*
X36724Y17931D02*
X37374D01*
X37443Y18000D01*
Y18325D01*
X34390Y16968D02*
Y16575D01*
X34586Y16772D02*
X34193D01*
X24331Y13327D02*
Y13720D01*
X24134Y13524D02*
X24528D01*
X38650Y23996D02*
X38256D01*
X38453Y23799D02*
Y24193D01*
D13*
X22268Y12102D02*
Y20189D01*
Y12102D02*
X30378D01*
X22268Y20189D02*
X30476D01*
X30398Y12102D02*
X30476Y20181D01*
X39035Y19161D02*
X40886D01*
Y15012D02*
Y19161D01*
X39035Y15012D02*
X40886D01*
X39035D02*
Y19161D01*
X28543Y12130D02*
X30669D01*
X28543Y10705D02*
X30669D01*
X28543Y11961D02*
Y12130D01*
X30669Y11961D02*
Y12130D01*
Y10705D02*
Y10874D01*
X28543Y10705D02*
Y10874D01*
D14*
X24016Y35000D02*
Y37047D01*
Y35000D02*
X28228D01*
Y37047D01*
X24026Y37057D02*
X28238D01*
X25079Y35039D02*
Y37047D01*
X26142Y35000D02*
Y37008D01*
X27205Y35039D02*
Y37008D01*
X9931Y29980D02*
X11703D01*
X9931Y25768D02*
X11703D01*
X11713Y25758D02*
Y29970D01*
X9931Y28917D02*
X11703D01*
X9931Y27854D02*
X11663D01*
X9931Y26791D02*
X11663D01*
X27841Y11427D02*
X28144D01*
X27992Y11260D02*
Y11594D01*
X19961Y36339D02*
Y37362D01*
X19213Y36339D02*
X19961D01*
X19134D02*
Y37362D01*
X17992Y36339D02*
Y37323D01*
X17244Y36339D02*
X17992D01*
X17165D02*
Y37362D01*
X16654D02*
X20591D01*
Y33543D02*
Y37362D01*
X16654Y33543D02*
X20591D01*
X12717D02*
Y37362D01*
Y33543D02*
X16654D01*
X12717Y37362D02*
X16654D01*
X13268Y36339D02*
Y37362D01*
X13307Y36339D02*
X14055D01*
Y37323D01*
X15197Y36339D02*
Y37362D01*
X15276Y36339D02*
X16024D01*
Y37362D01*
X13189Y33248D02*
X20157D01*
X13189Y31063D02*
Y33248D01*
Y31063D02*
X20157D01*
Y33248D01*
X14843Y31063D02*
Y33169D01*
X16614Y31063D02*
Y33248D01*
X18425Y31102D02*
Y33209D01*
X17726Y19951D02*
Y21919D01*
X16663Y19911D02*
Y21919D01*
X15600Y19951D02*
Y21959D01*
X14547Y21969D02*
X18760D01*
X18750Y19911D02*
Y21959D01*
X14537Y19911D02*
X18750D01*
X14537D02*
Y21959D01*
X17244Y27185D02*
X17480D01*
X17008D02*
X17244D01*
Y26949D02*
Y27421D01*
X20984Y31437D02*
X23268D01*
Y28780D02*
Y31437D01*
X21024Y28780D02*
X23268D01*
X20925Y25571D02*
Y34567D01*
Y25571D02*
X43661Y25571D01*
Y34559D01*
X43654Y34567D02*
X43661Y34559D01*
X20925Y34567D02*
X43654D01*
X19252Y25197D02*
X19744D01*
X19764Y24961D02*
Y26220D01*
X19232Y24961D02*
X19764D01*
X19232D02*
Y26220D01*
X19764D01*
X17884Y25197D02*
X18376D01*
X18396Y24961D02*
Y26220D01*
X17864Y24961D02*
X18396D01*
X17864D02*
Y26220D01*
X18396D01*
X10079Y20600D02*
X11102D01*
Y19852D02*
Y20600D01*
X10079Y19852D02*
X11102D01*
X10118Y18632D02*
X11102D01*
Y17884D02*
Y18632D01*
X10079Y17884D02*
X11102D01*
X10079Y17293D02*
Y21230D01*
X13898D01*
Y17293D02*
Y21230D01*
X10079Y17293D02*
X13898D01*
X24372Y35226D02*
X24272Y35326D01*
Y35526D01*
X24372Y35626D01*
X24472D01*
X24572Y35526D01*
Y35426D01*
Y35526D01*
X24672Y35626D01*
X24772D01*
X24872Y35526D01*
Y35326D01*
X24772Y35226D01*
X24272Y35826D02*
X24672D01*
X24872Y36026D01*
X24672Y36226D01*
X24272D01*
X24372Y36426D02*
X24272Y36526D01*
Y36726D01*
X24372Y36826D01*
X24472D01*
X24572Y36726D01*
Y36626D01*
Y36726D01*
X24672Y36826D01*
X24772D01*
X24872Y36726D01*
Y36526D01*
X24772Y36426D01*
X25306Y35502D02*
Y35902D01*
Y35702D01*
X25906D01*
X25306Y36102D02*
X25906Y36502D01*
X25306D02*
X25906Y36102D01*
X26988Y35522D02*
X26388D01*
Y35822D01*
X26488Y35922D01*
X26688D01*
X26788Y35822D01*
Y35522D01*
Y35722D02*
X26988Y35922D01*
X26388Y36121D02*
X26988Y36521D01*
X26388D02*
X26988Y36121D01*
X27541Y35616D02*
X27442Y35516D01*
Y35317D01*
X27541Y35217D01*
X27941D01*
X28041Y35317D01*
Y35516D01*
X27941Y35616D01*
X27741D01*
Y35416D01*
X28041Y35816D02*
X27442D01*
X28041Y36216D01*
X27442D01*
Y36416D02*
X28041D01*
Y36716D01*
X27941Y36816D01*
X27541D01*
X27442Y36716D01*
Y36416D01*
X10000Y28590D02*
X10100Y28690D01*
X10300D01*
X10400Y28590D01*
Y28490D01*
X10300Y28390D01*
X10200D01*
X10300D01*
X10400Y28290D01*
Y28191D01*
X10300Y28091D01*
X10100D01*
X10000Y28191D01*
X10600Y28690D02*
Y28290D01*
X10800Y28091D01*
X11000Y28290D01*
Y28690D01*
X11200Y28590D02*
X11300Y28690D01*
X11500D01*
X11599Y28590D01*
Y28490D01*
X11500Y28390D01*
X11400D01*
X11500D01*
X11599Y28290D01*
Y28191D01*
X11500Y28091D01*
X11300D01*
X11200Y28191D01*
X10410Y26455D02*
X10310Y26555D01*
X10110D01*
X10010Y26455D01*
Y26355D01*
X10110Y26255D01*
X10310D01*
X10410Y26155D01*
Y26055D01*
X10310Y25955D01*
X10110D01*
X10010Y26055D01*
X11010Y26455D02*
X10910Y26555D01*
X10710D01*
X10610Y26455D01*
Y26055D01*
X10710Y25955D01*
X10910D01*
X11010Y26055D01*
X11209Y26555D02*
Y25955D01*
X11609D01*
X10400Y27498D02*
X10300Y27598D01*
X10100D01*
X10000Y27498D01*
Y27398D01*
X10100Y27298D01*
X10300D01*
X10400Y27198D01*
Y27098D01*
X10300Y26998D01*
X10100D01*
X10000Y27098D01*
X10600Y27598D02*
Y26998D01*
X10900D01*
X11000Y27098D01*
Y27498D01*
X10900Y27598D01*
X10600D01*
X11200Y26998D02*
Y27398D01*
X11400Y27598D01*
X11599Y27398D01*
Y26998D01*
Y27298D01*
X11200D01*
X10459Y29653D02*
X10359Y29753D01*
X10159D01*
X10059Y29653D01*
Y29254D01*
X10159Y29154D01*
X10359D01*
X10459Y29254D01*
Y29453D01*
X10259D01*
X10659Y29154D02*
Y29753D01*
X11059Y29154D01*
Y29753D01*
X11259D02*
Y29154D01*
X11559D01*
X11659Y29254D01*
Y29653D01*
X11559Y29753D01*
X11259D01*
X18553Y25285D02*
Y25627D01*
X18639D01*
X18980Y25285D01*
X19065D01*
Y25797D02*
X18980D01*
Y25882D01*
X19065D01*
Y25797D01*
X18553Y26565D02*
Y26223D01*
X18809D01*
X18724Y26394D01*
Y26479D01*
X18809Y26565D01*
X18980D01*
X19065Y26479D01*
Y26309D01*
X18980Y26223D01*
X19065Y26735D02*
X18553D01*
X18894D02*
X18724Y26991D01*
X18894Y26735D02*
X19065Y26991D01*
X19067Y31378D02*
X18967Y31478D01*
Y31678D01*
X19067Y31778D01*
X19167D01*
X19267Y31678D01*
Y31578D01*
Y31678D01*
X19367Y31778D01*
X19467D01*
X19567Y31678D01*
Y31478D01*
X19467Y31378D01*
X18967Y31978D02*
X19367D01*
X19567Y32178D01*
X19367Y32378D01*
X18967D01*
X19067Y32578D02*
X18967Y32678D01*
Y32877D01*
X19067Y32977D01*
X19167D01*
X19267Y32877D01*
Y32778D01*
Y32877D01*
X19367Y32977D01*
X19467D01*
X19567Y32877D01*
Y32678D01*
X19467Y32578D01*
X17256Y31778D02*
X17156Y31678D01*
Y31478D01*
X17256Y31378D01*
X17356D01*
X17456Y31478D01*
Y31678D01*
X17556Y31778D01*
X17656D01*
X17756Y31678D01*
Y31478D01*
X17656Y31378D01*
X17156Y31978D02*
X17756D01*
Y32278D01*
X17656Y32378D01*
X17256D01*
X17156Y32278D01*
Y31978D01*
X17756Y32578D02*
X17356D01*
X17156Y32778D01*
X17356Y32977D01*
X17756D01*
X17456D01*
Y32578D01*
X13831Y31738D02*
X13731Y31638D01*
Y31439D01*
X13831Y31339D01*
X14231D01*
X14331Y31439D01*
Y31638D01*
X14231Y31738D01*
X14031D01*
Y31539D01*
X14331Y31938D02*
X13731D01*
X14331Y32338D01*
X13731D01*
Y32538D02*
X14331D01*
Y32838D01*
X14231Y32938D01*
X13831D01*
X13731Y32838D01*
Y32538D01*
X15524Y31778D02*
X15424Y31678D01*
Y31478D01*
X15524Y31378D01*
X15624D01*
X15724Y31478D01*
Y31678D01*
X15824Y31778D01*
X15924D01*
X16024Y31678D01*
Y31478D01*
X15924Y31378D01*
X15524Y32378D02*
X15424Y32278D01*
Y32078D01*
X15524Y31978D01*
X15924D01*
X16024Y32078D01*
Y32278D01*
X15924Y32378D01*
X15424Y32578D02*
X16024D01*
Y32977D01*
X17914Y20384D02*
X18514D01*
X18314Y20584D01*
X18514Y20784D01*
X17914D01*
X18014Y21384D02*
X17914Y21284D01*
Y21084D01*
X18014Y20984D01*
X18114D01*
X18214Y21084D01*
Y21284D01*
X18314Y21384D01*
X18414D01*
X18514Y21284D01*
Y21084D01*
X18414Y20984D01*
X16990Y20548D02*
X16890Y20448D01*
Y20248D01*
X16990Y20148D01*
X17390D01*
X17490Y20248D01*
Y20448D01*
X17390Y20548D01*
X17190D01*
Y20348D01*
X17490Y20747D02*
X16890D01*
X17490Y21147D01*
X16890D01*
Y21347D02*
X17490D01*
Y21647D01*
X17390Y21747D01*
X16990D01*
X16890Y21647D01*
Y21347D01*
X15947Y20567D02*
X15847Y20467D01*
Y20267D01*
X15947Y20167D01*
X16047D01*
X16147Y20267D01*
Y20467D01*
X16247Y20567D01*
X16347D01*
X16447Y20467D01*
Y20267D01*
X16347Y20167D01*
X15847Y20767D02*
X16447D01*
Y21067D01*
X16347Y21167D01*
X15947D01*
X15847Y21067D01*
Y20767D01*
X16447Y21367D02*
X16047D01*
X15847Y21567D01*
X16047Y21767D01*
X16447D01*
X16147D01*
Y21367D01*
X14894Y20557D02*
X14794Y20457D01*
Y20257D01*
X14894Y20157D01*
X14994D01*
X15094Y20257D01*
Y20457D01*
X15194Y20557D01*
X15294D01*
X15394Y20457D01*
Y20257D01*
X15294Y20157D01*
X14894Y21157D02*
X14794Y21057D01*
Y20857D01*
X14894Y20757D01*
X15294D01*
X15394Y20857D01*
Y21057D01*
X15294Y21157D01*
X14794Y21357D02*
X15394D01*
Y21757D01*
X21869Y19902D02*
X21270D01*
Y19602D01*
X21370Y19502D01*
X21770D01*
X21869Y19602D01*
Y19902D01*
X21270Y19302D02*
X21670D01*
X21869Y19102D01*
X21670Y18902D01*
X21270D01*
X21570D01*
Y19302D01*
X21770Y18702D02*
X21869Y18602D01*
Y18402D01*
X21770Y18302D01*
X21670D01*
X21570Y18402D01*
Y18502D01*
Y18402D01*
X21470Y18302D01*
X21370D01*
X21270Y18402D01*
Y18602D01*
X21370Y18702D01*
X12431Y33189D02*
X11831Y32789D01*
X12431D02*
X11831Y33189D01*
X12431Y32589D02*
Y32189D01*
X12331D01*
X11931Y32589D01*
X11831D01*
X41417Y34735D02*
X41017Y35335D01*
Y34735D02*
X41417Y35335D01*
X40818Y34835D02*
X40718Y34735D01*
X40518D01*
X40418Y34835D01*
Y34935D01*
X40518Y35035D01*
X40418Y35135D01*
Y35235D01*
X40518Y35335D01*
X40718D01*
X40818Y35235D01*
Y35135D01*
X40718Y35035D01*
X40818Y34935D01*
Y34835D01*
X40718Y35035D02*
X40518D01*
X32815Y34833D02*
X32415Y35433D01*
Y34833D02*
X32815Y35433D01*
X31815Y34833D02*
X32215D01*
Y35133D01*
X32015Y35033D01*
X31915D01*
X31815Y35133D01*
Y35333D01*
X31915Y35433D01*
X32115D01*
X32215Y35333D01*
X30984Y35364D02*
Y34764D01*
X30684D01*
X30584Y34864D01*
Y35064D01*
X30684Y35164D01*
X30984D01*
X30784D02*
X30584Y35364D01*
X30384D02*
X30185D01*
X30284D01*
Y34764D01*
X30384Y34864D01*
X31053Y10806D02*
Y10407D01*
X31253Y10207D01*
X31453Y10407D01*
Y10806D01*
X31653D02*
Y10207D01*
X31953D01*
X32053Y10307D01*
Y10707D01*
X31953Y10806D01*
X31653D01*
X32253Y10707D02*
X32353Y10806D01*
X32553D01*
X32653Y10707D01*
Y10607D01*
X32553Y10507D01*
X32453D01*
X32553D01*
X32653Y10407D01*
Y10307D01*
X32553Y10207D01*
X32353D01*
X32253Y10307D01*
X12953Y13612D02*
Y13212D01*
X13153Y13012D01*
X13353Y13212D01*
Y13612D01*
X13553D02*
Y13012D01*
X13852D01*
X13952Y13112D01*
Y13512D01*
X13852Y13612D01*
X13553D01*
X14552Y13012D02*
X14152D01*
X14552Y13412D01*
Y13512D01*
X14452Y13612D01*
X14252D01*
X14152Y13512D01*
X31684Y13051D02*
X32283D01*
Y13451D01*
Y14051D02*
Y13651D01*
X31884Y14051D01*
X31784D01*
X31684Y13951D01*
Y13751D01*
X31784Y13651D01*
X18164Y16328D02*
Y15728D01*
X18564D01*
X18764D02*
X18964D01*
X18864D01*
Y16328D01*
X18764Y16228D01*
X25482Y17411D02*
Y16811D01*
X25782D01*
X25882Y16911D01*
Y17311D01*
X25782Y17411D01*
X25482D01*
X26082Y16811D02*
Y17211D01*
X26282Y17411D01*
X26482Y17211D01*
Y16811D01*
Y17111D01*
X26082D01*
X26682Y16811D02*
X26882D01*
X26782D01*
Y17411D01*
X26682Y17311D01*
X36793Y16925D02*
X36693Y16825D01*
Y16626D01*
X36793Y16526D01*
X37193D01*
X37293Y16626D01*
Y16825D01*
X37193Y16925D01*
X37293Y17425D02*
X36693D01*
X36993Y17125D01*
Y17525D01*
X31971Y18549D02*
X31871Y18450D01*
Y18250D01*
X31971Y18150D01*
X32371D01*
X32470Y18250D01*
Y18450D01*
X32371Y18549D01*
X31971Y18749D02*
X31871Y18849D01*
Y19049D01*
X31971Y19149D01*
X32071D01*
X32171Y19049D01*
Y18949D01*
Y19049D01*
X32271Y19149D01*
X32371D01*
X32470Y19049D01*
Y18849D01*
X32371Y18749D01*
X26822Y13593D02*
X26722Y13693D01*
X26522D01*
X26422Y13593D01*
Y13193D01*
X26522Y13093D01*
X26722D01*
X26822Y13193D01*
X27422Y13093D02*
X27022D01*
X27422Y13493D01*
Y13593D01*
X27322Y13693D01*
X27122D01*
X27022Y13593D01*
X22861Y13344D02*
X22761Y13444D01*
X22561D01*
X22461Y13344D01*
Y12944D01*
X22561Y12844D01*
X22761D01*
X22861Y12944D01*
X23060Y12844D02*
X23260D01*
X23160D01*
Y13444D01*
X23060Y13344D01*
X13120Y22883D02*
X13520Y22283D01*
Y22883D02*
X13120Y22283D01*
X14020D02*
Y22883D01*
X13720Y22583D01*
X14120D01*
X41315Y24151D02*
X41215Y24251D01*
X41015D01*
X40915Y24151D01*
Y23752D01*
X41015Y23652D01*
X41215D01*
X41315Y23752D01*
X41915Y24251D02*
X41515D01*
Y23951D01*
X41715Y24051D01*
X41815D01*
X41915Y23951D01*
Y23752D01*
X41815Y23652D01*
X41615D01*
X41515Y23752D01*
X10130Y22250D02*
X10530Y21650D01*
Y22250D02*
X10130Y21650D01*
X10730Y21750D02*
X10830Y21650D01*
X11030D01*
X11130Y21750D01*
Y22150D01*
X11030Y22250D01*
X10830D01*
X10730Y22150D01*
Y22050D01*
X10830Y21950D01*
X11130D01*
X19163Y22913D02*
X19563Y22313D01*
Y22913D02*
X19163Y22313D01*
X19763D02*
X19963D01*
X19863D01*
Y22913D01*
X19763Y22813D01*
X32717Y23198D02*
X33116Y22598D01*
Y23198D02*
X32717Y22598D01*
X33716Y23198D02*
X33516Y23098D01*
X33316Y22898D01*
Y22698D01*
X33416Y22598D01*
X33616D01*
X33716Y22698D01*
Y22798D01*
X33616Y22898D01*
X33316D01*
X12205Y34046D02*
X11805Y34646D01*
Y34046D02*
X12205Y34646D01*
X11205D02*
X11605D01*
X11205Y34246D01*
Y34146D01*
X11305Y34046D01*
X11505D01*
X11605Y34146D01*
X26142Y23277D02*
X26542Y22677D01*
Y23277D02*
X26142Y22677D01*
X26742Y23177D02*
X26842Y23277D01*
X27041D01*
X27141Y23177D01*
Y23077D01*
X27041Y22977D01*
X26941D01*
X27041D01*
X27141Y22877D01*
Y22777D01*
X27041Y22677D01*
X26842D01*
X26742Y22777D01*
X16969Y24941D02*
X17369D01*
X17569Y25141D01*
X17369Y25341D01*
X16969D01*
Y25541D02*
X17569D01*
Y25841D01*
X17469Y25941D01*
X17069D01*
X16969Y25841D01*
Y25541D01*
X17569Y26141D02*
Y26340D01*
Y26241D01*
X16969D01*
X17069Y26141D01*
X19104Y23711D02*
X18505D01*
Y24011D01*
X18604Y24111D01*
X18804D01*
X18904Y24011D01*
Y23711D01*
Y23911D02*
X19104Y24111D01*
X18604Y24310D02*
X18505Y24410D01*
Y24610D01*
X18604Y24710D01*
X18704D01*
X18804Y24610D01*
Y24510D01*
Y24610D01*
X18904Y24710D01*
X19004D01*
X19104Y24610D01*
Y24410D01*
X19004Y24310D01*
X44006Y29173D02*
X44606D01*
Y29473D01*
X44506Y29573D01*
X44106D01*
X44006Y29473D01*
Y29173D01*
Y29773D02*
X44606D01*
Y30073D01*
X44506Y30173D01*
X44106D01*
X44006Y30073D01*
Y29773D01*
X44606Y30373D02*
Y30573D01*
Y30473D01*
X44006D01*
X44106Y30373D01*
X39617Y12687D02*
X40217D01*
Y12987D01*
X40117Y13087D01*
X39717D01*
X39617Y12987D01*
Y12687D01*
X40217Y13287D02*
X39817D01*
X39617Y13487D01*
X39817Y13687D01*
X40217D01*
X39917D01*
Y13287D01*
X40217Y14286D02*
Y13887D01*
X39817Y14286D01*
X39717D01*
X39617Y14187D01*
Y13987D01*
X39717Y13887D01*
D15*
X32795Y15866D02*
X33780D01*
X32795Y10906D02*
X33780D01*
X36772Y15866D02*
X37795D01*
X36772Y10906D02*
X37795D01*
Y15866D01*
X32795Y10906D02*
Y15866D01*
D16*
X10886Y16240D02*
Y16791D01*
Y15689D02*
Y16358D01*
X10374Y16260D02*
X11043D01*
X10925D02*
X11398D01*
D17*
X13811Y11730D02*
Y10549D01*
Y11168D02*
X13923Y11280D01*
X14036Y11336D01*
X14205D01*
X14317Y11280D01*
X14430Y11168D01*
X14486Y10999D01*
Y10887D01*
X14430Y10718D01*
X14317Y10605D01*
X14205Y10549D01*
X14036D01*
X13923Y10605D01*
X13811Y10718D01*
X15020Y11336D02*
X14908Y11280D01*
X14795Y11168D01*
X14739Y10999D01*
Y10887D01*
X14795Y10718D01*
X14908Y10605D01*
X15020Y10549D01*
X15189D01*
X15301Y10605D01*
X15414Y10718D01*
X15470Y10887D01*
Y10999D01*
X15414Y11168D01*
X15301Y11280D01*
X15189Y11336D01*
X15020D01*
X16403D02*
Y10549D01*
Y11168D02*
X16291Y11280D01*
X16178Y11336D01*
X16010D01*
X15897Y11280D01*
X15785Y11168D01*
X15728Y10999D01*
Y10887D01*
X15785Y10718D01*
X15897Y10605D01*
X16010Y10549D01*
X16178D01*
X16291Y10605D01*
X16403Y10718D01*
X16718Y11336D02*
Y10549D01*
Y10999D02*
X16774Y11168D01*
X16887Y11280D01*
X16999Y11336D01*
X17168D01*
X17950Y11730D02*
Y10549D01*
Y11168D02*
X17837Y11280D01*
X17725Y11336D01*
X17556D01*
X17444Y11280D01*
X17331Y11168D01*
X17275Y10999D01*
Y10887D01*
X17331Y10718D01*
X17444Y10605D01*
X17556Y10549D01*
X17725D01*
X17837Y10605D01*
X17950Y10718D01*
X19192Y11336D02*
X19530Y10549D01*
X19867Y11336D02*
X19530Y10549D01*
X20115Y10662D02*
X20058Y10605D01*
X20115Y10549D01*
X20171Y10605D01*
X20115Y10662D01*
X20429Y11505D02*
X20542Y11561D01*
X20711Y11730D01*
Y10549D01*
X21352Y10662D02*
X21295Y10605D01*
X21352Y10549D01*
X21408Y10605D01*
X21352Y10662D01*
X22004Y11730D02*
X21835Y11674D01*
X21723Y11505D01*
X21666Y11224D01*
Y11055D01*
X21723Y10774D01*
X21835Y10605D01*
X22004Y10549D01*
X22116D01*
X22285Y10605D01*
X22397Y10774D01*
X22454Y11055D01*
Y11224D01*
X22397Y11505D01*
X22285Y11674D01*
X22116Y11730D01*
X22004D01*
X15868Y13028D02*
X15755Y13140D01*
X15587Y13197D01*
X15362D01*
X15193Y13140D01*
X15081Y13028D01*
Y12915D01*
X15137Y12803D01*
X15193Y12747D01*
X15306Y12691D01*
X15643Y12578D01*
X15755Y12522D01*
X15812Y12466D01*
X15868Y12353D01*
Y12184D01*
X15755Y12072D01*
X15587Y12016D01*
X15362D01*
X15193Y12072D01*
X15081Y12184D01*
X16132Y12466D02*
X16807D01*
Y12578D01*
X16751Y12691D01*
X16695Y12747D01*
X16582Y12803D01*
X16413D01*
X16301Y12747D01*
X16188Y12634D01*
X16132Y12466D01*
Y12353D01*
X16188Y12184D01*
X16301Y12072D01*
X16413Y12016D01*
X16582D01*
X16695Y12072D01*
X16807Y12184D01*
X17060Y12803D02*
Y12016D01*
Y12578D02*
X17229Y12747D01*
X17341Y12803D01*
X17510D01*
X17622Y12747D01*
X17679Y12578D01*
Y12016D01*
X18606Y12634D02*
X18550Y12747D01*
X18381Y12803D01*
X18213D01*
X18044Y12747D01*
X17988Y12634D01*
X18044Y12522D01*
X18157Y12466D01*
X18438Y12409D01*
X18550Y12353D01*
X18606Y12241D01*
Y12184D01*
X18550Y12072D01*
X18381Y12016D01*
X18213D01*
X18044Y12072D01*
X17988Y12184D01*
X19135Y12803D02*
X19023Y12747D01*
X18910Y12634D01*
X18854Y12466D01*
Y12353D01*
X18910Y12184D01*
X19023Y12072D01*
X19135Y12016D01*
X19304D01*
X19416Y12072D01*
X19529Y12184D01*
X19585Y12353D01*
Y12466D01*
X19529Y12634D01*
X19416Y12747D01*
X19304Y12803D01*
X19135D01*
X19843D02*
Y12016D01*
Y12466D02*
X19900Y12634D01*
X20012Y12747D01*
X20125Y12803D01*
X20293D01*
X21019Y12634D02*
X20962Y12747D01*
X20794Y12803D01*
X20625D01*
X20456Y12747D01*
X20400Y12634D01*
X20456Y12522D01*
X20569Y12466D01*
X20850Y12409D01*
X20962Y12353D01*
X21019Y12241D01*
Y12184D01*
X20962Y12072D01*
X20794Y12016D01*
X20625D01*
X20456Y12072D01*
X20400Y12184D01*
D18*
X31270Y36693D02*
Y37152D01*
X31178Y37244D01*
X30994D01*
X30902Y37152D01*
Y36693D01*
X30719Y37244D02*
Y36877D01*
X30535Y36693D01*
X30351Y36877D01*
Y37244D01*
Y36969D01*
X30719D01*
X30168Y37244D02*
Y36693D01*
X29892D01*
X29800Y36785D01*
Y36969D01*
X29892Y37060D01*
X30168D01*
X29984D02*
X29800Y37244D01*
X29617Y36693D02*
X29249D01*
X29433D01*
Y37244D01*
D19*
X19734Y28445D02*
X19157D01*
X19446D01*
Y29311D01*
X18435D02*
X18724D01*
X18868Y29167D01*
Y28878D01*
X18724Y28734D01*
X18435D01*
X18291Y28878D01*
Y29022D01*
X18868D01*
X18003Y29311D02*
Y28734D01*
X17858D01*
X17714Y28878D01*
Y29311D01*
Y28878D01*
X17570Y28734D01*
X17425Y28878D01*
Y29311D01*
X17137Y29600D02*
Y28734D01*
X16704D01*
X16559Y28878D01*
Y29167D01*
X16704Y29311D01*
X17137D01*
X16271Y28445D02*
Y29311D01*
Y28878D01*
X15694D01*
Y28445D01*
Y29311D01*
X15405Y28734D02*
Y29167D01*
X15261Y29311D01*
X14828D01*
Y28734D01*
X14539Y29311D02*
Y28734D01*
X14395D01*
X14250Y28878D01*
Y29311D01*
Y28878D01*
X14106Y28734D01*
X13962Y28878D01*
Y29311D01*
X18517Y29899D02*
X18662Y29754D01*
X18950D01*
X19094Y29899D01*
Y30043D01*
X18950Y30187D01*
X18662D01*
X18517Y30331D01*
Y30476D01*
X18662Y30620D01*
X18950D01*
X19094Y30476D01*
X17796Y30620D02*
X18084D01*
X18229Y30476D01*
Y30187D01*
X18084Y30043D01*
X17796D01*
X17651Y30187D01*
Y30331D01*
X18229D01*
X17363Y30620D02*
Y30043D01*
X16930D01*
X16786Y30187D01*
Y30620D01*
X16497D02*
X16064D01*
X15920Y30476D01*
X16064Y30331D01*
X16353D01*
X16497Y30187D01*
X16353Y30043D01*
X15920D01*
X15487Y30620D02*
X15198D01*
X15054Y30476D01*
Y30187D01*
X15198Y30043D01*
X15487D01*
X15631Y30187D01*
Y30476D01*
X15487Y30620D01*
X14765Y30043D02*
Y30620D01*
Y30331D01*
X14621Y30187D01*
X14477Y30043D01*
X14332D01*
X24850Y24349D02*
X25015Y24184D01*
X25346D01*
X25512Y24349D01*
Y24515D01*
X25346Y24680D01*
X25015D01*
X24850Y24846D01*
Y25012D01*
X25015Y25177D01*
X25346D01*
X25512Y25012D01*
X24022Y25177D02*
X24353D01*
X24518Y25012D01*
Y24680D01*
X24353Y24515D01*
X24022D01*
X23856Y24680D01*
Y24846D01*
X24518D01*
X23525Y25177D02*
Y24515D01*
X23028D01*
X22863Y24680D01*
Y25177D01*
X22532D02*
X22035D01*
X21869Y25012D01*
X22035Y24846D01*
X22366D01*
X22532Y24680D01*
X22366Y24515D01*
X21869D01*
X21373Y25177D02*
X21042D01*
X20876Y25012D01*
Y24680D01*
X21042Y24515D01*
X21373D01*
X21538Y24680D01*
Y25012D01*
X21373Y25177D01*
X20545Y24515D02*
Y25177D01*
Y24846D01*
X20379Y24680D01*
X20214Y24515D01*
X20048D01*
X24695Y20424D02*
Y21417D01*
X24364Y21086D01*
X24033Y21417D01*
Y20424D01*
X23536Y20755D02*
X23205D01*
X23039Y20921D01*
Y21417D01*
X23536D01*
X23702Y21252D01*
X23536Y21086D01*
X23039D01*
X22543Y20590D02*
Y20755D01*
X22708D01*
X22377D01*
X22543D01*
Y21252D01*
X22377Y21417D01*
X21384D02*
X21715D01*
X21880Y21252D01*
Y20921D01*
X21715Y20755D01*
X21384D01*
X21218Y20921D01*
Y21086D01*
X21880D01*
X20887Y20755D02*
Y21417D01*
Y21086D01*
X20721Y20921D01*
X20556Y20755D01*
X20390D01*
D20*
X37251Y20196D02*
X37417Y20030D01*
X37748D01*
X37913Y20196D01*
Y20858D01*
X37748Y21024D01*
X37417D01*
X37251Y20858D01*
X36754Y21024D02*
X36423D01*
X36258Y20858D01*
Y20527D01*
X36423Y20361D01*
X36754D01*
X36920Y20527D01*
Y20858D01*
X36754Y21024D01*
X35761D02*
X35430D01*
X35264Y20858D01*
Y20527D01*
X35430Y20361D01*
X35761D01*
X35927Y20527D01*
Y20858D01*
X35761Y21024D01*
X34933D02*
X34602D01*
X34768D01*
Y20030D01*
X34933D01*
X33609Y21024D02*
X33940D01*
X34105Y20858D01*
Y20527D01*
X33940Y20361D01*
X33609D01*
X33443Y20527D01*
Y20692D01*
X34105D01*
X33112Y20361D02*
Y21024D01*
Y20692D01*
X32946Y20527D01*
X32781Y20361D01*
X32615D01*
X30960Y21024D02*
Y20196D01*
Y20527D01*
X31125D01*
X30794D01*
X30960D01*
Y20196D01*
X30794Y20030D01*
X30132Y20361D02*
X29801D01*
X29635Y20527D01*
Y21024D01*
X30132D01*
X30297Y20858D01*
X30132Y20692D01*
X29635D01*
X29304Y21024D02*
Y20361D01*
X28807D01*
X28642Y20527D01*
Y21024D01*
X28311D02*
X27814D01*
X27648Y20858D01*
X27814Y20692D01*
X28145D01*
X28311Y20527D01*
X28145Y20361D01*
X27648D01*
D21*
X30212Y24302D02*
X30543D01*
X30709Y24467D01*
Y25130D01*
X30543Y25295D01*
X30212D01*
X30046Y25130D01*
Y24467D01*
X30212Y24302D01*
X29715D02*
Y25130D01*
X29550Y25295D01*
X29219D01*
X29053Y25130D01*
Y24302D01*
X28722D02*
X28060D01*
X28391D01*
Y25295D01*
X36998Y24302D02*
X36667D01*
X36832D01*
Y25295D01*
X36998D01*
X36667D01*
X36170D02*
Y24302D01*
X35508Y25295D01*
Y24302D01*
M02*
