G04*
G04 #@! TF.GenerationSoftware,Altium Limited,Altium Designer,19.1.8 (144)*
G04*
G04 Layer_Physical_Order=1*
G04 Layer_Color=255*
%FSLAX24Y24*%
%MOIN*%
G70*
G01*
G75*
%ADD19C,0.0236*%
%ADD22R,0.0512X0.0591*%
%ADD23R,0.0591X0.0512*%
%ADD24R,0.2756X0.1575*%
%ADD25R,0.0858X0.0835*%
%ADD26R,0.0400X0.1260*%
%ADD27R,0.4000X0.3976*%
%ADD28R,0.0866X0.1240*%
%ADD29R,0.1024X0.0433*%
%ADD51C,0.0618*%
%ADD52R,0.0618X0.0618*%
%ADD53C,0.0492*%
%ADD54C,0.0984*%
%ADD55C,0.0787*%
%ADD56C,0.0866*%
%ADD57C,0.0512*%
%ADD58C,0.0118*%
%ADD59C,0.0394*%
%ADD60C,0.0591*%
%ADD61C,0.0433*%
%ADD62C,0.0732*%
%ADD63R,0.0732X0.0732*%
%ADD64R,0.0591X0.0591*%
%ADD65C,0.0591*%
%ADD66R,0.0591X0.0591*%
%ADD67R,0.0512X0.0512*%
%ADD68C,0.0512*%
%ADD69C,0.0394*%
%ADD70C,0.0531*%
%ADD71C,0.2047*%
%ADD72C,0.0866*%
%ADD73C,0.0600*%
%ADD74R,0.0512X0.0512*%
G36*
X43163Y37117D02*
X43103Y37081D01*
X42961Y36960D01*
X42841Y36818D01*
X42744Y36660D01*
X42672Y36488D01*
X42629Y36307D01*
X42622Y36220D01*
X43799D01*
Y36122D01*
X43898D01*
Y34945D01*
X43985Y34952D01*
X44165Y34995D01*
X44337Y35066D01*
X44496Y35164D01*
X44637Y35284D01*
X44758Y35426D01*
X44855Y35584D01*
X44926Y35756D01*
X44950Y35856D01*
X45000Y35850D01*
Y23894D01*
X44950Y23888D01*
X44926Y23988D01*
X44855Y24160D01*
X44758Y24318D01*
X44637Y24460D01*
X44496Y24581D01*
X44337Y24678D01*
X44165Y24749D01*
X43985Y24792D01*
X43898Y24799D01*
Y23622D01*
Y22445D01*
X43985Y22452D01*
X44165Y22495D01*
X44337Y22566D01*
X44496Y22664D01*
X44637Y22784D01*
X44758Y22926D01*
X44855Y23084D01*
X44926Y23256D01*
X44950Y23356D01*
X45000Y23350D01*
Y11394D01*
X44950Y11388D01*
X44926Y11488D01*
X44855Y11660D01*
X44758Y11818D01*
X44637Y11960D01*
X44496Y12081D01*
X44337Y12178D01*
X44165Y12249D01*
X43985Y12292D01*
X43898Y12299D01*
Y11122D01*
X43799D01*
Y11024D01*
X42622D01*
X42629Y10937D01*
X42672Y10756D01*
X42744Y10584D01*
X42841Y10426D01*
X42961Y10284D01*
X43103Y10164D01*
X43224Y10089D01*
X43210Y10039D01*
X11908D01*
X11894Y10089D01*
X12015Y10164D01*
X12157Y10284D01*
X12277Y10426D01*
X12375Y10584D01*
X12446Y10756D01*
X12489Y10937D01*
X12496Y11024D01*
X10142D01*
X10149Y10937D01*
X10192Y10756D01*
X10263Y10584D01*
X10360Y10426D01*
X10481Y10284D01*
X10623Y10164D01*
X10744Y10089D01*
X10729Y10039D01*
X10079D01*
Y37165D01*
X10669D01*
X10682Y37117D01*
X10623Y37081D01*
X10481Y36960D01*
X10360Y36818D01*
X10263Y36660D01*
X10192Y36488D01*
X10149Y36307D01*
X10142Y36220D01*
X12496D01*
X12489Y36307D01*
X12446Y36488D01*
X12375Y36660D01*
X12277Y36818D01*
X12157Y36960D01*
X12015Y37081D01*
X11955Y37117D01*
X11969Y37165D01*
X43149D01*
X43163Y37117D01*
D02*
G37*
%LPC*%
G36*
X30833Y36599D02*
X30694Y36581D01*
X30565Y36527D01*
X30454Y36442D01*
X30368Y36331D01*
X30358Y36305D01*
X30308D01*
X30297Y36331D01*
X30212Y36442D01*
X30101Y36527D01*
X29971Y36581D01*
X29833Y36599D01*
X29694Y36581D01*
X29565Y36527D01*
X29454Y36442D01*
X29414Y36391D01*
X29364Y36408D01*
Y36594D01*
X28301D01*
Y36559D01*
X26545D01*
X26417Y36542D01*
X26297Y36493D01*
X26194Y36414D01*
X23988Y34207D01*
X23909Y34104D01*
X23859Y33985D01*
X23842Y33856D01*
Y33274D01*
X23823Y33227D01*
X23770Y33225D01*
X23738Y33302D01*
X23665Y33397D01*
X23569Y33470D01*
X23458Y33517D01*
X23437Y33519D01*
Y33071D01*
Y32622D01*
X23458Y32625D01*
X23569Y32671D01*
X23665Y32745D01*
X23738Y32840D01*
X23770Y32917D01*
X23823Y32914D01*
X23842Y32868D01*
Y31808D01*
X20913Y28878D01*
X12415D01*
X12369Y28897D01*
X12364Y28915D01*
X12365Y28950D01*
X12453Y28986D01*
X12547Y29059D01*
X12620Y29154D01*
X12666Y29264D01*
X12668Y29283D01*
X12224D01*
X11781D01*
X11783Y29264D01*
X11829Y29154D01*
X11902Y29059D01*
X11996Y28986D01*
X12084Y28950D01*
X12085Y28915D01*
X12080Y28897D01*
X11956Y28846D01*
X11845Y28761D01*
X11760Y28650D01*
X11707Y28521D01*
X11688Y28382D01*
X11707Y28243D01*
X11760Y28114D01*
X11845Y28003D01*
X11956Y27918D01*
X11982Y27907D01*
Y27857D01*
X11956Y27846D01*
X11845Y27761D01*
X11760Y27650D01*
X11707Y27521D01*
X11688Y27382D01*
X11707Y27243D01*
X11760Y27114D01*
X11845Y27003D01*
X11956Y26918D01*
X11982Y26907D01*
Y26857D01*
X11956Y26846D01*
X11845Y26761D01*
X11760Y26650D01*
X11707Y26521D01*
X11688Y26382D01*
X11707Y26243D01*
X11760Y26114D01*
X11845Y26003D01*
X11956Y25918D01*
X11982Y25907D01*
Y25857D01*
X11956Y25846D01*
X11845Y25761D01*
X11760Y25650D01*
X11707Y25521D01*
X11688Y25382D01*
X11707Y25243D01*
X11760Y25114D01*
X11845Y25003D01*
X11897Y24963D01*
X11880Y24913D01*
X11693D01*
Y23850D01*
X12756D01*
Y24913D01*
X12569D01*
X12552Y24963D01*
X12603Y25003D01*
X12689Y25114D01*
X12742Y25243D01*
X12760Y25382D01*
X12742Y25521D01*
X12689Y25650D01*
X12603Y25761D01*
X12492Y25846D01*
X12467Y25857D01*
Y25907D01*
X12492Y25918D01*
X12603Y26003D01*
X12689Y26114D01*
X12742Y26243D01*
X12760Y26382D01*
X12742Y26521D01*
X12689Y26650D01*
X12603Y26761D01*
X12492Y26846D01*
X12467Y26857D01*
Y26907D01*
X12492Y26918D01*
X12603Y27003D01*
X12689Y27114D01*
X12742Y27243D01*
X12760Y27382D01*
X12742Y27521D01*
X12689Y27650D01*
X12603Y27761D01*
X12506Y27836D01*
X12523Y27886D01*
X21118D01*
X21247Y27902D01*
X21366Y27952D01*
X21469Y28031D01*
X24690Y31251D01*
X24768Y31354D01*
X24818Y31474D01*
X24835Y31602D01*
Y32764D01*
X24885Y32781D01*
X24956Y32688D01*
X25068Y32602D01*
X25199Y32548D01*
X25339Y32530D01*
X25479Y32548D01*
X25609Y32602D01*
X25721Y32688D01*
X25807Y32800D01*
X25814Y32816D01*
X25864D01*
X25870Y32800D01*
X25956Y32688D01*
X26068Y32602D01*
X26199Y32548D01*
X26339Y32530D01*
X26479Y32548D01*
X26609Y32602D01*
X26721Y32688D01*
X26807Y32800D01*
X26814Y32816D01*
X26864D01*
X26870Y32800D01*
X26956Y32688D01*
X27068Y32602D01*
X27199Y32548D01*
X27339Y32530D01*
X27479Y32548D01*
X27609Y32602D01*
X27721Y32688D01*
X27807Y32800D01*
X27814Y32816D01*
X27864D01*
X27870Y32800D01*
X27956Y32688D01*
X28068Y32602D01*
X28199Y32548D01*
X28339Y32530D01*
X28479Y32548D01*
X28609Y32602D01*
X28721Y32688D01*
X28807Y32800D01*
X28814Y32816D01*
X28864D01*
X28870Y32800D01*
X28956Y32688D01*
X29068Y32602D01*
X29199Y32548D01*
X29339Y32530D01*
X29428Y32542D01*
X29441Y32535D01*
X29475Y32498D01*
Y31250D01*
X27086Y28861D01*
X27029Y28787D01*
X26993Y28701D01*
X26981Y28608D01*
Y27473D01*
X26956Y27453D01*
X26870Y27341D01*
X26864Y27325D01*
X26814D01*
X26807Y27341D01*
X26721Y27453D01*
X26609Y27539D01*
X26479Y27593D01*
X26339Y27612D01*
X26199Y27593D01*
X26068Y27539D01*
X25956Y27453D01*
X25870Y27341D01*
X25864Y27325D01*
X25814D01*
X25807Y27341D01*
X25721Y27453D01*
X25609Y27539D01*
X25479Y27593D01*
X25339Y27612D01*
X25199Y27593D01*
X25068Y27539D01*
X24956Y27453D01*
X24870Y27341D01*
X24864Y27325D01*
X24814D01*
X24807Y27341D01*
X24721Y27453D01*
X24609Y27539D01*
X24479Y27593D01*
X24339Y27612D01*
X24199Y27593D01*
X24068Y27539D01*
X23956Y27453D01*
X23870Y27341D01*
X23864Y27325D01*
X23814D01*
X23807Y27341D01*
X23721Y27453D01*
X23609Y27539D01*
X23479Y27593D01*
X23339Y27612D01*
X23199Y27593D01*
X23068Y27539D01*
X22956Y27453D01*
X22870Y27341D01*
X22864Y27325D01*
X22814D01*
X22807Y27341D01*
X22721Y27453D01*
X22609Y27539D01*
X22479Y27593D01*
X22339Y27612D01*
X22199Y27593D01*
X22068Y27539D01*
X21956Y27453D01*
X21870Y27341D01*
X21816Y27211D01*
X21798Y27071D01*
X21816Y26931D01*
X21870Y26800D01*
X21956Y26688D01*
X22068Y26602D01*
X22199Y26548D01*
X22339Y26530D01*
X22479Y26548D01*
X22609Y26602D01*
X22721Y26688D01*
X22807Y26800D01*
X22814Y26816D01*
X22864D01*
X22870Y26800D01*
X22956Y26688D01*
X23068Y26602D01*
X23199Y26548D01*
X23339Y26530D01*
X23479Y26548D01*
X23609Y26602D01*
X23721Y26688D01*
X23807Y26800D01*
X23814Y26816D01*
X23864D01*
X23870Y26800D01*
X23956Y26688D01*
X24068Y26602D01*
X24199Y26548D01*
X24339Y26530D01*
X24479Y26548D01*
X24609Y26602D01*
X24721Y26688D01*
X24807Y26800D01*
X24814Y26816D01*
X24864D01*
X24870Y26800D01*
X24956Y26688D01*
X25068Y26602D01*
X25199Y26548D01*
X25339Y26530D01*
X25479Y26548D01*
X25609Y26602D01*
X25721Y26688D01*
X25807Y26800D01*
X25814Y26816D01*
X25864D01*
X25870Y26800D01*
X25956Y26688D01*
X26068Y26602D01*
X26199Y26548D01*
X26339Y26530D01*
X26479Y26548D01*
X26609Y26602D01*
X26721Y26688D01*
X26807Y26800D01*
X26814Y26816D01*
X26864D01*
X26870Y26800D01*
X26956Y26688D01*
X27068Y26602D01*
X27199Y26548D01*
X27339Y26530D01*
X27479Y26548D01*
X27609Y26602D01*
X27721Y26688D01*
X27807Y26800D01*
X27814Y26816D01*
X27864D01*
X27870Y26800D01*
X27956Y26688D01*
X28068Y26602D01*
X28199Y26548D01*
X28339Y26530D01*
X28479Y26548D01*
X28609Y26602D01*
X28721Y26688D01*
X28807Y26800D01*
X28814Y26816D01*
X28864D01*
X28870Y26800D01*
X28956Y26688D01*
X29068Y26602D01*
X29199Y26548D01*
X29339Y26530D01*
X29479Y26548D01*
X29609Y26602D01*
X29721Y26688D01*
X29807Y26800D01*
X29814Y26816D01*
X29864D01*
X29870Y26800D01*
X29956Y26688D01*
X30068Y26602D01*
X30199Y26548D01*
X30339Y26530D01*
X30479Y26548D01*
X30609Y26602D01*
X30721Y26688D01*
X30807Y26800D01*
X30814Y26816D01*
X30864D01*
X30870Y26800D01*
X30956Y26688D01*
X31068Y26602D01*
X31199Y26548D01*
X31339Y26530D01*
X31479Y26548D01*
X31609Y26602D01*
X31721Y26688D01*
X31807Y26800D01*
X31814Y26816D01*
X31864D01*
X31870Y26800D01*
X31956Y26688D01*
X32068Y26602D01*
X32199Y26548D01*
X32339Y26530D01*
X32479Y26548D01*
X32609Y26602D01*
X32721Y26688D01*
X32807Y26800D01*
X32814Y26816D01*
X32864D01*
X32870Y26800D01*
X32956Y26688D01*
X33068Y26602D01*
X33199Y26548D01*
X33339Y26530D01*
X33479Y26548D01*
X33609Y26602D01*
X33721Y26688D01*
X33807Y26800D01*
X33814Y26816D01*
X33864D01*
X33870Y26800D01*
X33956Y26688D01*
X34068Y26602D01*
X34199Y26548D01*
X34339Y26530D01*
X34479Y26548D01*
X34609Y26602D01*
X34721Y26688D01*
X34807Y26800D01*
X34814Y26816D01*
X34864D01*
X34870Y26800D01*
X34956Y26688D01*
X35068Y26602D01*
X35199Y26548D01*
X35339Y26530D01*
X35479Y26548D01*
X35609Y26602D01*
X35721Y26688D01*
X35807Y26800D01*
X35814Y26816D01*
X35864D01*
X35870Y26800D01*
X35956Y26688D01*
X36068Y26602D01*
X36199Y26548D01*
X36339Y26530D01*
X36479Y26548D01*
X36609Y26602D01*
X36721Y26688D01*
X36807Y26800D01*
X36814Y26816D01*
X36864D01*
X36870Y26800D01*
X36956Y26688D01*
X37068Y26602D01*
X37199Y26548D01*
X37339Y26530D01*
X37479Y26548D01*
X37609Y26602D01*
X37721Y26688D01*
X37807Y26800D01*
X37814Y26816D01*
X37864D01*
X37870Y26800D01*
X37956Y26688D01*
X38068Y26602D01*
X38199Y26548D01*
X38339Y26530D01*
X38479Y26548D01*
X38609Y26602D01*
X38721Y26688D01*
X38755Y26733D01*
X38802Y26717D01*
Y24016D01*
Y21724D01*
X38802Y21724D01*
X38821Y21586D01*
X38843Y21532D01*
X38874Y21456D01*
X38960Y21345D01*
X40291Y20014D01*
Y18689D01*
X40171D01*
X40166Y18693D01*
X40040Y18760D01*
X39903Y18802D01*
X39760Y18816D01*
X37502D01*
Y18945D01*
X36596D01*
Y18816D01*
X34443D01*
X34300Y18802D01*
X34162Y18760D01*
X34036Y18693D01*
X33925Y18602D01*
X33867Y18543D01*
X33839D01*
Y18512D01*
X33762Y18418D01*
X33694Y18292D01*
X33652Y18155D01*
X33638Y18012D01*
Y15984D01*
X33648Y15881D01*
X33606Y15831D01*
X31518D01*
Y17385D01*
X29812D01*
Y15691D01*
X29914D01*
X29933Y15645D01*
X29780Y15491D01*
X29710Y15401D01*
X29667Y15296D01*
X29652Y15183D01*
Y14749D01*
X29517D01*
Y13962D01*
Y13175D01*
X29652D01*
Y13096D01*
X30525D01*
Y13175D01*
X30660D01*
Y13962D01*
Y14749D01*
X30525D01*
Y14957D01*
X33661D01*
Y14370D01*
X36890D01*
Y16417D01*
X35102D01*
Y17352D01*
X39249D01*
X39282Y17302D01*
X39250Y17223D01*
X39245Y17185D01*
X39760D01*
Y16988D01*
X39245D01*
X39250Y16950D01*
X39302Y16823D01*
X39386Y16713D01*
X39453Y16662D01*
X39448Y16603D01*
X39424Y16590D01*
X39332Y16515D01*
X39257Y16423D01*
X39201Y16318D01*
X39166Y16205D01*
X39155Y16087D01*
X39166Y15969D01*
X39201Y15855D01*
X39257Y15750D01*
X39332Y15659D01*
X39424Y15583D01*
X39528Y15527D01*
X39642Y15493D01*
X39760Y15481D01*
X39878Y15493D01*
X39991Y15527D01*
X40064Y15566D01*
X40472D01*
X40472Y15566D01*
X40611Y15585D01*
X40665Y15607D01*
X40740Y15638D01*
X40852Y15723D01*
X41206Y16078D01*
X41206Y16078D01*
X41291Y16189D01*
X41345Y16318D01*
X41363Y16457D01*
X41363Y16457D01*
Y20236D01*
X41363Y20236D01*
X41345Y20375D01*
X41291Y20504D01*
X41206Y20615D01*
X41206Y20615D01*
X39875Y21946D01*
Y23632D01*
X39925Y23652D01*
X40018Y23613D01*
X40028Y23612D01*
Y24016D01*
Y24420D01*
X40018Y24418D01*
X39925Y24380D01*
X39875Y24399D01*
Y26865D01*
X39925Y26875D01*
X39939Y26840D01*
X40012Y26745D01*
X40108Y26671D01*
X40219Y26625D01*
X40240Y26622D01*
Y27071D01*
Y27519D01*
X40219Y27517D01*
X40108Y27470D01*
X40012Y27397D01*
X39939Y27302D01*
X39907Y27225D01*
X39854Y27227D01*
X39807Y27341D01*
X39721Y27453D01*
X39609Y27539D01*
X39479Y27593D01*
X39339Y27612D01*
X39199Y27593D01*
X39068Y27539D01*
X38956Y27453D01*
X38870Y27341D01*
X38864Y27325D01*
X38814D01*
X38807Y27341D01*
X38721Y27453D01*
X38609Y27539D01*
X38479Y27593D01*
X38339Y27612D01*
X38199Y27593D01*
X38068Y27539D01*
X37956Y27453D01*
X37870Y27341D01*
X37864Y27325D01*
X37814D01*
X37807Y27341D01*
X37721Y27453D01*
X37609Y27539D01*
X37479Y27593D01*
X37339Y27612D01*
X37199Y27593D01*
X37068Y27539D01*
X36956Y27453D01*
X36870Y27341D01*
X36864Y27325D01*
X36814D01*
X36807Y27341D01*
X36721Y27453D01*
X36609Y27539D01*
X36479Y27593D01*
X36339Y27612D01*
X36199Y27593D01*
X36068Y27539D01*
X35956Y27453D01*
X35870Y27341D01*
X35864Y27325D01*
X35814D01*
X35807Y27341D01*
X35721Y27453D01*
X35609Y27539D01*
X35479Y27593D01*
X35339Y27612D01*
X35199Y27593D01*
X35068Y27539D01*
X34956Y27453D01*
X34870Y27341D01*
X34864Y27325D01*
X34814D01*
X34807Y27341D01*
X34721Y27453D01*
X34609Y27539D01*
X34479Y27593D01*
X34339Y27612D01*
X34199Y27593D01*
X34068Y27539D01*
X33956Y27453D01*
X33870Y27341D01*
X33864Y27325D01*
X33814D01*
X33807Y27341D01*
X33721Y27453D01*
X33609Y27539D01*
X33479Y27593D01*
X33339Y27612D01*
X33199Y27593D01*
X33068Y27539D01*
X32956Y27453D01*
X32870Y27341D01*
X32864Y27325D01*
X32814D01*
X32807Y27341D01*
X32721Y27453D01*
X32609Y27539D01*
X32479Y27593D01*
X32339Y27612D01*
X32199Y27593D01*
X32068Y27539D01*
X31956Y27453D01*
X31870Y27341D01*
X31864Y27325D01*
X31814D01*
X31807Y27341D01*
X31721Y27453D01*
X31609Y27539D01*
X31479Y27593D01*
X31339Y27612D01*
X31199Y27593D01*
X31068Y27539D01*
X30956Y27453D01*
X30870Y27341D01*
X30864Y27325D01*
X30814D01*
X30807Y27341D01*
X30721Y27453D01*
X30609Y27539D01*
X30479Y27593D01*
X30339Y27612D01*
X30199Y27593D01*
X30068Y27539D01*
X29956Y27453D01*
X29870Y27341D01*
X29864Y27325D01*
X29814D01*
X29807Y27341D01*
X29721Y27453D01*
X29609Y27539D01*
X29479Y27593D01*
X29339Y27612D01*
X29199Y27593D01*
X29068Y27539D01*
X28956Y27453D01*
X28870Y27341D01*
X28864Y27325D01*
X28814D01*
X28807Y27341D01*
X28721Y27453D01*
X28696Y27473D01*
Y28043D01*
X31079Y30426D01*
X31136Y30500D01*
X31172Y30587D01*
X31184Y30679D01*
X31184Y30679D01*
Y32502D01*
X31185Y32504D01*
X31234Y32544D01*
X31339Y32530D01*
X31479Y32548D01*
X31609Y32602D01*
X31721Y32688D01*
X31807Y32800D01*
X31814Y32816D01*
X31864D01*
X31870Y32800D01*
X31956Y32688D01*
X32068Y32602D01*
X32199Y32548D01*
X32339Y32530D01*
X32479Y32548D01*
X32609Y32602D01*
X32721Y32688D01*
X32807Y32800D01*
X32814Y32816D01*
X32864D01*
X32870Y32800D01*
X32956Y32688D01*
X33068Y32602D01*
X33199Y32548D01*
X33339Y32530D01*
X33479Y32548D01*
X33609Y32602D01*
X33721Y32688D01*
X33807Y32800D01*
X33814Y32816D01*
X33864D01*
X33870Y32800D01*
X33956Y32688D01*
X34068Y32602D01*
X34199Y32548D01*
X34339Y32530D01*
X34479Y32548D01*
X34609Y32602D01*
X34721Y32688D01*
X34807Y32800D01*
X34814Y32816D01*
X34864D01*
X34870Y32800D01*
X34956Y32688D01*
X35068Y32602D01*
X35199Y32548D01*
X35339Y32530D01*
X35479Y32548D01*
X35609Y32602D01*
X35721Y32688D01*
X35807Y32800D01*
X35814Y32816D01*
X35864D01*
X35870Y32800D01*
X35956Y32688D01*
X36068Y32602D01*
X36199Y32548D01*
X36339Y32530D01*
X36479Y32548D01*
X36609Y32602D01*
X36721Y32688D01*
X36807Y32800D01*
X36814Y32816D01*
X36864D01*
X36870Y32800D01*
X36956Y32688D01*
X37068Y32602D01*
X37199Y32548D01*
X37339Y32530D01*
X37479Y32548D01*
X37609Y32602D01*
X37721Y32688D01*
X37807Y32800D01*
X37814Y32816D01*
X37864D01*
X37870Y32800D01*
X37956Y32688D01*
X38068Y32602D01*
X38199Y32548D01*
X38339Y32530D01*
X38479Y32548D01*
X38609Y32602D01*
X38721Y32688D01*
X38807Y32800D01*
X38814Y32816D01*
X38864D01*
X38870Y32800D01*
X38956Y32688D01*
X39068Y32602D01*
X39199Y32548D01*
X39339Y32530D01*
X39479Y32548D01*
X39609Y32602D01*
X39721Y32688D01*
X39807Y32800D01*
X39814Y32816D01*
X39864D01*
X39870Y32800D01*
X39956Y32688D01*
X40068Y32602D01*
X40199Y32548D01*
X40339Y32530D01*
X40479Y32548D01*
X40609Y32602D01*
X40721Y32688D01*
X40807Y32800D01*
X40814Y32816D01*
X40864D01*
X40870Y32800D01*
X40956Y32688D01*
X41068Y32602D01*
X41199Y32548D01*
X41339Y32530D01*
X41479Y32548D01*
X41609Y32602D01*
X41721Y32688D01*
X41807Y32800D01*
X41861Y32931D01*
X41879Y33071D01*
X41861Y33211D01*
X41807Y33341D01*
X41721Y33453D01*
X41609Y33539D01*
X41479Y33593D01*
X41339Y33612D01*
X41199Y33593D01*
X41068Y33539D01*
X40956Y33453D01*
X40870Y33341D01*
X40864Y33325D01*
X40814D01*
X40807Y33341D01*
X40721Y33453D01*
X40609Y33539D01*
X40479Y33593D01*
X40339Y33612D01*
X40199Y33593D01*
X40068Y33539D01*
X39956Y33453D01*
X39870Y33341D01*
X39864Y33325D01*
X39814D01*
X39807Y33341D01*
X39721Y33453D01*
X39609Y33539D01*
X39479Y33593D01*
X39339Y33612D01*
X39199Y33593D01*
X39068Y33539D01*
X38956Y33453D01*
X38870Y33341D01*
X38864Y33325D01*
X38814D01*
X38807Y33341D01*
X38721Y33453D01*
X38609Y33539D01*
X38479Y33593D01*
X38339Y33612D01*
X38199Y33593D01*
X38068Y33539D01*
X37956Y33453D01*
X37870Y33341D01*
X37864Y33325D01*
X37814D01*
X37807Y33341D01*
X37721Y33453D01*
X37609Y33539D01*
X37479Y33593D01*
X37339Y33612D01*
X37199Y33593D01*
X37068Y33539D01*
X36956Y33453D01*
X36870Y33341D01*
X36864Y33325D01*
X36814D01*
X36807Y33341D01*
X36721Y33453D01*
X36609Y33539D01*
X36479Y33593D01*
X36339Y33612D01*
X36199Y33593D01*
X36068Y33539D01*
X35956Y33453D01*
X35870Y33341D01*
X35864Y33325D01*
X35814D01*
X35807Y33341D01*
X35721Y33453D01*
X35609Y33539D01*
X35479Y33593D01*
X35339Y33612D01*
X35199Y33593D01*
X35068Y33539D01*
X34956Y33453D01*
X34870Y33341D01*
X34864Y33325D01*
X34814D01*
X34807Y33341D01*
X34721Y33453D01*
X34609Y33539D01*
X34479Y33593D01*
X34339Y33612D01*
X34199Y33593D01*
X34068Y33539D01*
X33956Y33453D01*
X33870Y33341D01*
X33864Y33325D01*
X33814D01*
X33807Y33341D01*
X33721Y33453D01*
X33609Y33539D01*
X33479Y33593D01*
X33339Y33612D01*
X33199Y33593D01*
X33068Y33539D01*
X32956Y33453D01*
X32870Y33341D01*
X32864Y33325D01*
X32814D01*
X32807Y33341D01*
X32721Y33453D01*
X32609Y33539D01*
X32479Y33593D01*
X32339Y33612D01*
X32199Y33593D01*
X32068Y33539D01*
X31956Y33453D01*
X31870Y33341D01*
X31864Y33325D01*
X31814D01*
X31807Y33341D01*
X31721Y33453D01*
X31609Y33539D01*
X31479Y33593D01*
X31339Y33612D01*
X31227Y33597D01*
X31182Y33637D01*
X31184Y33652D01*
Y35663D01*
X31212Y35684D01*
X31297Y35795D01*
X31348Y35919D01*
X31366Y35924D01*
X31401Y35923D01*
X31437Y35835D01*
X31510Y35740D01*
X31604Y35668D01*
X31714Y35622D01*
X31734Y35619D01*
Y36063D01*
Y36507D01*
X31714Y36504D01*
X31604Y36458D01*
X31510Y36386D01*
X31437Y36291D01*
X31401Y36203D01*
X31366Y36202D01*
X31348Y36207D01*
X31297Y36331D01*
X31212Y36442D01*
X31101Y36527D01*
X30971Y36581D01*
X30833Y36599D01*
D02*
G37*
G36*
X39990Y36599D02*
X39851Y36581D01*
X39722Y36527D01*
X39611Y36442D01*
X39526Y36331D01*
X39515Y36305D01*
X39465D01*
X39454Y36331D01*
X39369Y36442D01*
X39258Y36527D01*
X39129Y36581D01*
X38990Y36599D01*
X38851Y36581D01*
X38722Y36527D01*
X38611Y36442D01*
X38526Y36331D01*
X38515Y36305D01*
X38465D01*
X38454Y36331D01*
X38369Y36442D01*
X38258Y36527D01*
X38129Y36581D01*
X37990Y36599D01*
X37851Y36581D01*
X37722Y36527D01*
X37611Y36442D01*
X37526Y36331D01*
X37515Y36305D01*
X37465D01*
X37454Y36331D01*
X37369Y36442D01*
X37258Y36527D01*
X37129Y36581D01*
X36990Y36599D01*
X36851Y36581D01*
X36722Y36527D01*
X36611Y36442D01*
X36526Y36331D01*
X36515Y36305D01*
X36465D01*
X36454Y36331D01*
X36369Y36442D01*
X36258Y36527D01*
X36129Y36581D01*
X35990Y36599D01*
X35851Y36581D01*
X35722Y36527D01*
X35611Y36442D01*
X35526Y36331D01*
X35515Y36305D01*
X35465D01*
X35454Y36331D01*
X35369Y36442D01*
X35258Y36527D01*
X35129Y36581D01*
X34990Y36599D01*
X34851Y36581D01*
X34722Y36527D01*
X34611Y36442D01*
X34526Y36331D01*
X34515Y36305D01*
X34465D01*
X34454Y36331D01*
X34369Y36442D01*
X34258Y36527D01*
X34129Y36581D01*
X33990Y36599D01*
X33851Y36581D01*
X33722Y36527D01*
X33611Y36442D01*
X33526Y36331D01*
X33472Y36202D01*
X33454Y36063D01*
X33472Y35924D01*
X33526Y35795D01*
X33611Y35684D01*
X33722Y35599D01*
X33851Y35545D01*
X33990Y35527D01*
X34129Y35545D01*
X34258Y35599D01*
X34369Y35684D01*
X34454Y35795D01*
X34465Y35821D01*
X34515D01*
X34526Y35795D01*
X34611Y35684D01*
X34722Y35599D01*
X34851Y35545D01*
X34990Y35527D01*
X35129Y35545D01*
X35258Y35599D01*
X35369Y35684D01*
X35454Y35795D01*
X35465Y35821D01*
X35515D01*
X35526Y35795D01*
X35611Y35684D01*
X35722Y35599D01*
X35851Y35545D01*
X35990Y35527D01*
X36129Y35545D01*
X36258Y35599D01*
X36369Y35684D01*
X36454Y35795D01*
X36465Y35821D01*
X36515D01*
X36526Y35795D01*
X36611Y35684D01*
X36722Y35599D01*
X36851Y35545D01*
X36990Y35527D01*
X37129Y35545D01*
X37258Y35599D01*
X37369Y35684D01*
X37454Y35795D01*
X37465Y35821D01*
X37515D01*
X37526Y35795D01*
X37611Y35684D01*
X37722Y35599D01*
X37851Y35545D01*
X37990Y35527D01*
X38129Y35545D01*
X38258Y35599D01*
X38369Y35684D01*
X38454Y35795D01*
X38465Y35821D01*
X38515D01*
X38526Y35795D01*
X38611Y35684D01*
X38722Y35599D01*
X38851Y35545D01*
X38990Y35527D01*
X39129Y35545D01*
X39258Y35599D01*
X39369Y35684D01*
X39454Y35795D01*
X39465Y35821D01*
X39515D01*
X39526Y35795D01*
X39611Y35684D01*
X39722Y35599D01*
X39851Y35545D01*
X39990Y35527D01*
X40129Y35545D01*
X40258Y35599D01*
X40369Y35684D01*
X40409Y35735D01*
X40459Y35718D01*
Y35531D01*
X41522D01*
Y36594D01*
X40459D01*
Y36408D01*
X40409Y36391D01*
X40369Y36442D01*
X40258Y36527D01*
X40129Y36581D01*
X39990Y36599D01*
D02*
G37*
G36*
X31931Y36507D02*
Y36161D01*
X32276D01*
X32274Y36181D01*
X32228Y36291D01*
X32156Y36386D01*
X32061Y36458D01*
X31951Y36504D01*
X31931Y36507D01*
D02*
G37*
G36*
X32276Y35965D02*
X31931D01*
Y35619D01*
X31951Y35622D01*
X32061Y35668D01*
X32156Y35740D01*
X32228Y35835D01*
X32274Y35945D01*
X32276Y35965D01*
D02*
G37*
G36*
X13799Y35741D02*
Y35256D01*
X14284D01*
X14283Y35273D01*
X14249Y35385D01*
X14194Y35487D01*
X14120Y35577D01*
X14030Y35651D01*
X13928Y35706D01*
X13817Y35739D01*
X13799Y35741D01*
D02*
G37*
G36*
X13602D02*
X13585Y35739D01*
X13474Y35706D01*
X13371Y35651D01*
X13281Y35577D01*
X13207Y35487D01*
X13153Y35385D01*
X13119Y35273D01*
X13117Y35256D01*
X13602D01*
Y35741D01*
D02*
G37*
G36*
X43701Y36024D02*
X42622D01*
X42629Y35937D01*
X42672Y35756D01*
X42744Y35584D01*
X42841Y35426D01*
X42961Y35284D01*
X43103Y35164D01*
X43261Y35066D01*
X43433Y34995D01*
X43614Y34952D01*
X43701Y34945D01*
Y36024D01*
D02*
G37*
G36*
X12496D02*
X11417D01*
Y34945D01*
X11504Y34952D01*
X11685Y34995D01*
X11857Y35066D01*
X12015Y35164D01*
X12157Y35284D01*
X12277Y35426D01*
X12375Y35584D01*
X12446Y35756D01*
X12489Y35937D01*
X12496Y36024D01*
D02*
G37*
G36*
X11220D02*
X10142D01*
X10149Y35937D01*
X10192Y35756D01*
X10263Y35584D01*
X10360Y35426D01*
X10481Y35284D01*
X10623Y35164D01*
X10781Y35066D01*
X10953Y34995D01*
X11134Y34952D01*
X11220Y34945D01*
Y36024D01*
D02*
G37*
G36*
X14284Y35059D02*
X13799D01*
Y34574D01*
X13817Y34575D01*
X13928Y34609D01*
X14030Y34664D01*
X14120Y34738D01*
X14194Y34828D01*
X14249Y34930D01*
X14283Y35042D01*
X14284Y35059D01*
D02*
G37*
G36*
X13602D02*
X13117D01*
X13119Y35042D01*
X13153Y34930D01*
X13207Y34828D01*
X13281Y34738D01*
X13371Y34664D01*
X13474Y34609D01*
X13585Y34575D01*
X13602Y34574D01*
Y35059D01*
D02*
G37*
G36*
X19606Y35830D02*
X19475Y35817D01*
X19349Y35779D01*
X19233Y35717D01*
X19131Y35633D01*
X19047Y35531D01*
X18985Y35415D01*
X18947Y35289D01*
X18934Y35157D01*
X18947Y35026D01*
X18985Y34900D01*
X19047Y34784D01*
X19131Y34682D01*
X19233Y34598D01*
X19349Y34536D01*
X19475Y34498D01*
X19606Y34485D01*
X19737Y34498D01*
X19864Y34536D01*
X19980Y34598D01*
X20082Y34682D01*
X20165Y34784D01*
X20228Y34900D01*
X20266Y35026D01*
X20279Y35157D01*
X20266Y35289D01*
X20228Y35415D01*
X20165Y35531D01*
X20082Y35633D01*
X19980Y35717D01*
X19864Y35779D01*
X19737Y35817D01*
X19606Y35830D01*
D02*
G37*
G36*
X17638D02*
X17507Y35817D01*
X17380Y35779D01*
X17264Y35717D01*
X17162Y35633D01*
X17079Y35531D01*
X17016Y35415D01*
X16978Y35289D01*
X16965Y35157D01*
X16978Y35026D01*
X17016Y34900D01*
X17079Y34784D01*
X17162Y34682D01*
X17264Y34598D01*
X17380Y34536D01*
X17507Y34498D01*
X17638Y34485D01*
X17769Y34498D01*
X17895Y34536D01*
X18011Y34598D01*
X18113Y34682D01*
X18197Y34784D01*
X18259Y34900D01*
X18297Y35026D01*
X18310Y35157D01*
X18297Y35289D01*
X18259Y35415D01*
X18197Y35531D01*
X18113Y35633D01*
X18011Y35717D01*
X17895Y35779D01*
X17769Y35817D01*
X17638Y35830D01*
D02*
G37*
G36*
X15669D02*
X15538Y35817D01*
X15412Y35779D01*
X15296Y35717D01*
X15194Y35633D01*
X15110Y35531D01*
X15048Y35415D01*
X15010Y35289D01*
X14997Y35157D01*
X15010Y35026D01*
X15048Y34900D01*
X15110Y34784D01*
X15194Y34682D01*
X15296Y34598D01*
X15412Y34536D01*
X15538Y34498D01*
X15669Y34485D01*
X15800Y34498D01*
X15927Y34536D01*
X16043Y34598D01*
X16145Y34682D01*
X16228Y34784D01*
X16291Y34900D01*
X16329Y35026D01*
X16342Y35157D01*
X16329Y35289D01*
X16291Y35415D01*
X16228Y35531D01*
X16145Y35633D01*
X16043Y35717D01*
X15927Y35779D01*
X15800Y35817D01*
X15669Y35830D01*
D02*
G37*
G36*
X22437Y33519D02*
Y33169D01*
X22787D01*
X22784Y33190D01*
X22738Y33302D01*
X22665Y33397D01*
X22569Y33470D01*
X22458Y33517D01*
X22437Y33519D01*
D02*
G37*
G36*
X23240D02*
X23219Y33517D01*
X23108Y33470D01*
X23012Y33397D01*
X22939Y33302D01*
X22893Y33190D01*
X22890Y33169D01*
X23240D01*
Y33519D01*
D02*
G37*
G36*
X22240D02*
X22219Y33517D01*
X22108Y33470D01*
X22012Y33397D01*
X21939Y33302D01*
X21893Y33190D01*
X21890Y33169D01*
X22240D01*
Y33519D01*
D02*
G37*
G36*
X22787Y32972D02*
X22437D01*
Y32622D01*
X22458Y32625D01*
X22569Y32671D01*
X22665Y32745D01*
X22738Y32840D01*
X22784Y32951D01*
X22787Y32972D01*
D02*
G37*
G36*
X22240D02*
X21890D01*
X21893Y32951D01*
X21939Y32840D01*
X22012Y32745D01*
X22108Y32671D01*
X22219Y32625D01*
X22240Y32622D01*
Y32972D01*
D02*
G37*
G36*
X23240D02*
X22890D01*
X22893Y32951D01*
X22939Y32840D01*
X23012Y32745D01*
X23108Y32671D01*
X23219Y32625D01*
X23240Y32622D01*
Y32972D01*
D02*
G37*
G36*
X12224Y31918D02*
X12086Y31900D01*
X11956Y31846D01*
X11845Y31761D01*
X11760Y31650D01*
X11707Y31521D01*
X11688Y31382D01*
X11707Y31243D01*
X11760Y31114D01*
X11845Y31003D01*
X11956Y30918D01*
X11982Y30907D01*
Y30857D01*
X11956Y30846D01*
X11845Y30761D01*
X11760Y30650D01*
X11707Y30521D01*
X11688Y30382D01*
X11707Y30243D01*
X11760Y30114D01*
X11845Y30003D01*
X11956Y29918D01*
X12080Y29866D01*
X12085Y29849D01*
X12084Y29814D01*
X11996Y29777D01*
X11902Y29705D01*
X11829Y29610D01*
X11783Y29500D01*
X11781Y29480D01*
X12224D01*
X12668D01*
X12666Y29500D01*
X12620Y29610D01*
X12547Y29705D01*
X12453Y29777D01*
X12365Y29814D01*
X12364Y29849D01*
X12369Y29866D01*
X12492Y29918D01*
X12603Y30003D01*
X12689Y30114D01*
X12742Y30243D01*
X12760Y30382D01*
X12742Y30521D01*
X12689Y30650D01*
X12603Y30761D01*
X12492Y30846D01*
X12467Y30857D01*
Y30907D01*
X12492Y30918D01*
X12603Y31003D01*
X12689Y31114D01*
X12742Y31243D01*
X12760Y31382D01*
X12742Y31521D01*
X12689Y31650D01*
X12603Y31761D01*
X12492Y31846D01*
X12363Y31900D01*
X12224Y31918D01*
D02*
G37*
G36*
X19606Y27614D02*
Y27264D01*
X19956D01*
X19954Y27285D01*
X19907Y27396D01*
X19834Y27492D01*
X19739Y27565D01*
X19627Y27611D01*
X19606Y27614D01*
D02*
G37*
G36*
X18238D02*
Y27264D01*
X18588D01*
X18585Y27285D01*
X18539Y27396D01*
X18466Y27492D01*
X18370Y27565D01*
X18259Y27611D01*
X18238Y27614D01*
D02*
G37*
G36*
X19409D02*
X19388Y27611D01*
X19277Y27565D01*
X19182Y27492D01*
X19108Y27396D01*
X19062Y27285D01*
X19059Y27264D01*
X19409D01*
Y27614D01*
D02*
G37*
G36*
X18041D02*
X18020Y27611D01*
X17909Y27565D01*
X17813Y27492D01*
X17740Y27396D01*
X17694Y27285D01*
X17691Y27264D01*
X18041D01*
Y27614D01*
D02*
G37*
G36*
X41339Y27612D02*
X41199Y27593D01*
X41068Y27539D01*
X40956Y27453D01*
X40870Y27341D01*
X40823Y27227D01*
X40770Y27225D01*
X40738Y27302D01*
X40665Y27397D01*
X40569Y27470D01*
X40458Y27517D01*
X40437Y27519D01*
Y27071D01*
Y26622D01*
X40458Y26625D01*
X40569Y26671D01*
X40665Y26745D01*
X40738Y26840D01*
X40770Y26917D01*
X40823Y26914D01*
X40870Y26800D01*
X40956Y26688D01*
X41068Y26602D01*
X41199Y26548D01*
X41339Y26530D01*
X41479Y26548D01*
X41609Y26602D01*
X41721Y26688D01*
X41807Y26800D01*
X41861Y26931D01*
X41879Y27071D01*
X41861Y27211D01*
X41807Y27341D01*
X41721Y27453D01*
X41609Y27539D01*
X41479Y27593D01*
X41339Y27612D01*
D02*
G37*
G36*
X19956Y27067D02*
X19606D01*
Y26717D01*
X19627Y26720D01*
X19739Y26766D01*
X19834Y26839D01*
X19907Y26935D01*
X19954Y27046D01*
X19956Y27067D01*
D02*
G37*
G36*
X18588D02*
X18238D01*
Y26717D01*
X18259Y26720D01*
X18370Y26766D01*
X18466Y26839D01*
X18539Y26935D01*
X18585Y27046D01*
X18588Y27067D01*
D02*
G37*
G36*
X19409D02*
X19059D01*
X19062Y27046D01*
X19108Y26935D01*
X19182Y26839D01*
X19277Y26766D01*
X19388Y26720D01*
X19409Y26717D01*
Y27067D01*
D02*
G37*
G36*
X18041D02*
X17691D01*
X17694Y27046D01*
X17740Y26935D01*
X17813Y26839D01*
X17909Y26766D01*
X18020Y26720D01*
X18041Y26717D01*
Y27067D01*
D02*
G37*
G36*
X40224Y24420D02*
Y24114D01*
X40530D01*
X40529Y24124D01*
X40487Y24224D01*
X40421Y24311D01*
X40334Y24377D01*
X40234Y24418D01*
X40224Y24420D01*
D02*
G37*
G36*
X43701Y24799D02*
X43614Y24792D01*
X43433Y24749D01*
X43261Y24678D01*
X43103Y24581D01*
X42961Y24460D01*
X42841Y24318D01*
X42744Y24160D01*
X42672Y23988D01*
X42629Y23807D01*
X42622Y23720D01*
X43701D01*
Y24799D01*
D02*
G37*
G36*
X40530Y23917D02*
X40224D01*
Y23612D01*
X40234Y23613D01*
X40334Y23655D01*
X40421Y23721D01*
X40487Y23807D01*
X40529Y23908D01*
X40530Y23917D01*
D02*
G37*
G36*
X19508Y24683D02*
X19368Y24664D01*
X19237Y24610D01*
X19125Y24524D01*
X19039Y24412D01*
X18985Y24282D01*
X18967Y24142D01*
X18985Y24002D01*
X19039Y23871D01*
X19125Y23759D01*
X19237Y23673D01*
X19368Y23619D01*
X19508Y23601D01*
X19648Y23619D01*
X19778Y23673D01*
X19890Y23759D01*
X19976Y23871D01*
X20030Y24002D01*
X20049Y24142D01*
X20030Y24282D01*
X19976Y24412D01*
X19890Y24524D01*
X19778Y24610D01*
X19648Y24664D01*
X19508Y24683D01*
D02*
G37*
G36*
X18140D02*
X18000Y24664D01*
X17869Y24610D01*
X17757Y24524D01*
X17671Y24412D01*
X17617Y24282D01*
X17599Y24142D01*
X17617Y24002D01*
X17671Y23871D01*
X17757Y23759D01*
X17869Y23673D01*
X18000Y23619D01*
X18140Y23601D01*
X18280Y23619D01*
X18410Y23673D01*
X18522Y23759D01*
X18608Y23871D01*
X18662Y24002D01*
X18681Y24142D01*
X18662Y24282D01*
X18608Y24412D01*
X18522Y24524D01*
X18410Y24610D01*
X18280Y24664D01*
X18140Y24683D01*
D02*
G37*
G36*
X36669Y23196D02*
X36527Y23177D01*
X36394Y23122D01*
X36280Y23035D01*
X36197Y22926D01*
X36169Y22923D01*
X36141Y22926D01*
X36058Y23035D01*
X35944Y23122D01*
X35812Y23177D01*
X35669Y23196D01*
X35527Y23177D01*
X35394Y23122D01*
X35280Y23035D01*
X35197Y22926D01*
X35169Y22923D01*
X35141Y22926D01*
X35058Y23035D01*
X34944Y23122D01*
X34812Y23177D01*
X34669Y23196D01*
X34527Y23177D01*
X34394Y23122D01*
X34280Y23035D01*
X34193Y22921D01*
X34138Y22788D01*
X34119Y22646D01*
X34138Y22503D01*
X34193Y22371D01*
X34280Y22257D01*
X34394Y22169D01*
X34527Y22114D01*
X34669Y22096D01*
X34812Y22114D01*
X34944Y22169D01*
X35058Y22257D01*
X35141Y22365D01*
X35169Y22368D01*
X35197Y22365D01*
X35280Y22257D01*
X35347Y22206D01*
Y22156D01*
X35325Y22139D01*
X35248Y22039D01*
X35199Y21921D01*
X35183Y21795D01*
X35199Y21669D01*
X35248Y21552D01*
X35325Y21451D01*
X35426Y21374D01*
X35543Y21325D01*
X35669Y21309D01*
X35795Y21325D01*
X35913Y21374D01*
X36013Y21451D01*
X36091Y21552D01*
X36139Y21669D01*
X36156Y21795D01*
X36139Y21921D01*
X36091Y22039D01*
X36013Y22139D01*
X35992Y22156D01*
Y22206D01*
X36058Y22257D01*
X36141Y22365D01*
X36169Y22368D01*
X36197Y22365D01*
X36280Y22257D01*
X36394Y22169D01*
X36527Y22114D01*
X36669Y22096D01*
X36812Y22114D01*
X36944Y22169D01*
X37058Y22257D01*
X37146Y22371D01*
X37153Y22388D01*
X37203Y22378D01*
Y22179D01*
X37571D01*
Y22646D01*
Y23112D01*
X37203D01*
Y22913D01*
X37153Y22903D01*
X37146Y22921D01*
X37058Y23035D01*
X36944Y23122D01*
X36812Y23177D01*
X36669Y23196D01*
D02*
G37*
G36*
X29909D02*
X29767Y23177D01*
X29634Y23122D01*
X29521Y23035D01*
X29438Y22926D01*
X29409Y22923D01*
X29381Y22926D01*
X29298Y23035D01*
X29184Y23122D01*
X29052Y23177D01*
X28909Y23196D01*
X28767Y23177D01*
X28634Y23122D01*
X28521Y23035D01*
X28438Y22926D01*
X28409Y22923D01*
X28381Y22926D01*
X28298Y23035D01*
X28184Y23122D01*
X28052Y23177D01*
X27909Y23196D01*
X27767Y23177D01*
X27634Y23122D01*
X27521Y23035D01*
X27433Y22921D01*
X27378Y22788D01*
X27359Y22646D01*
X27378Y22503D01*
X27433Y22371D01*
X27521Y22257D01*
X27634Y22169D01*
X27767Y22114D01*
X27909Y22096D01*
X28052Y22114D01*
X28184Y22169D01*
X28298Y22257D01*
X28381Y22365D01*
X28409Y22368D01*
X28438Y22365D01*
X28521Y22257D01*
X28587Y22206D01*
Y22156D01*
X28565Y22139D01*
X28488Y22039D01*
X28440Y21921D01*
X28423Y21795D01*
X28440Y21669D01*
X28488Y21552D01*
X28565Y21451D01*
X28666Y21374D01*
X28784Y21325D01*
X28909Y21309D01*
X29035Y21325D01*
X29153Y21374D01*
X29253Y21451D01*
X29331Y21552D01*
X29379Y21669D01*
X29396Y21795D01*
X29379Y21921D01*
X29331Y22039D01*
X29253Y22139D01*
X29232Y22156D01*
Y22206D01*
X29298Y22257D01*
X29381Y22365D01*
X29409Y22368D01*
X29438Y22365D01*
X29521Y22257D01*
X29634Y22169D01*
X29767Y22114D01*
X29909Y22096D01*
X30052Y22114D01*
X30184Y22169D01*
X30298Y22257D01*
X30386Y22371D01*
X30393Y22388D01*
X30443Y22378D01*
Y22179D01*
X30811D01*
Y22646D01*
Y23112D01*
X30443D01*
Y22913D01*
X30393Y22903D01*
X30386Y22921D01*
X30298Y23035D01*
X30184Y23122D01*
X30052Y23177D01*
X29909Y23196D01*
D02*
G37*
G36*
X16136Y23125D02*
X15997Y23106D01*
X15868Y23053D01*
X15757Y22968D01*
X15717Y22916D01*
X15667Y22933D01*
Y23120D01*
X14604D01*
Y22057D01*
X15667D01*
Y22244D01*
X15717Y22261D01*
X15757Y22210D01*
X15868Y22124D01*
X15997Y22071D01*
X16136Y22053D01*
X16275Y22071D01*
X16404Y22124D01*
X16515Y22210D01*
X16600Y22321D01*
X16651Y22444D01*
X16669Y22449D01*
X16704Y22448D01*
X16740Y22360D01*
X16813Y22266D01*
X16908Y22193D01*
X17018Y22147D01*
X17037Y22145D01*
Y22589D01*
Y23032D01*
X17018Y23030D01*
X16908Y22984D01*
X16813Y22911D01*
X16740Y22817D01*
X16704Y22729D01*
X16669Y22728D01*
X16651Y22733D01*
X16600Y22857D01*
X16515Y22968D01*
X16404Y23053D01*
X16275Y23106D01*
X16136Y23125D01*
D02*
G37*
G36*
X22165Y23095D02*
X22027Y23077D01*
X21897Y23023D01*
X21786Y22938D01*
X21760Y22904D01*
X21713Y22920D01*
Y23091D01*
X20650D01*
Y22028D01*
X21713D01*
Y22198D01*
X21760Y22214D01*
X21786Y22180D01*
X21897Y22095D01*
X22027Y22041D01*
X22165Y22023D01*
X22304Y22041D01*
X22433Y22095D01*
X22544Y22180D01*
X22630Y22291D01*
X22673Y22396D01*
X22727D01*
X22754Y22331D01*
X22827Y22236D01*
X22921Y22164D01*
X23031Y22118D01*
X23051Y22115D01*
Y22559D01*
Y23003D01*
X23031Y23000D01*
X22921Y22955D01*
X22827Y22882D01*
X22754Y22787D01*
X22727Y22722D01*
X22673D01*
X22630Y22827D01*
X22544Y22938D01*
X22433Y23023D01*
X22304Y23077D01*
X22165Y23095D01*
D02*
G37*
G36*
X31376Y23112D02*
X31008D01*
Y22744D01*
X31376D01*
Y23112D01*
D02*
G37*
G36*
X38136D02*
X37768D01*
Y22744D01*
X38136D01*
Y23112D01*
D02*
G37*
G36*
X18136Y23125D02*
X17997Y23106D01*
X17868Y23053D01*
X17757Y22968D01*
X17672Y22857D01*
X17620Y22733D01*
X17603Y22728D01*
X17568Y22729D01*
X17531Y22817D01*
X17459Y22911D01*
X17364Y22984D01*
X17254Y23030D01*
X17234Y23032D01*
Y22589D01*
Y22145D01*
X17254Y22147D01*
X17364Y22193D01*
X17459Y22266D01*
X17531Y22360D01*
X17568Y22448D01*
X17603Y22449D01*
X17620Y22444D01*
X17672Y22321D01*
X17757Y22210D01*
X17868Y22124D01*
X17997Y22071D01*
X18136Y22053D01*
X18275Y22071D01*
X18404Y22124D01*
X18515Y22210D01*
X18600Y22321D01*
X18654Y22450D01*
X18672Y22589D01*
X18654Y22727D01*
X18600Y22857D01*
X18515Y22968D01*
X18404Y23053D01*
X18275Y23106D01*
X18136Y23125D01*
D02*
G37*
G36*
X24134Y23095D02*
X23995Y23077D01*
X23866Y23023D01*
X23755Y22938D01*
X23670Y22827D01*
X23626Y22722D01*
X23572D01*
X23545Y22787D01*
X23473Y22882D01*
X23378Y22955D01*
X23268Y23000D01*
X23248Y23003D01*
Y22559D01*
Y22115D01*
X23268Y22118D01*
X23378Y22164D01*
X23473Y22236D01*
X23545Y22331D01*
X23572Y22396D01*
X23626D01*
X23670Y22291D01*
X23755Y22180D01*
X23866Y22095D01*
X23995Y22041D01*
X24134Y22023D01*
X24273Y22041D01*
X24402Y22095D01*
X24513Y22180D01*
X24598Y22291D01*
X24652Y22420D01*
X24670Y22559D01*
X24652Y22698D01*
X24598Y22827D01*
X24513Y22938D01*
X24402Y23023D01*
X24273Y23077D01*
X24134Y23095D01*
D02*
G37*
G36*
X43701Y23524D02*
X42622D01*
X42629Y23437D01*
X42672Y23256D01*
X42744Y23084D01*
X42841Y22926D01*
X42961Y22784D01*
X43103Y22664D01*
X43261Y22566D01*
X43433Y22495D01*
X43614Y22452D01*
X43701Y22445D01*
Y23524D01*
D02*
G37*
G36*
X38136Y22547D02*
X37768D01*
Y22179D01*
X38136D01*
Y22547D01*
D02*
G37*
G36*
X31376Y22547D02*
X31008D01*
Y22179D01*
X31376D01*
Y22547D01*
D02*
G37*
G36*
X34469Y19833D02*
Y19488D01*
X34814D01*
X34811Y19508D01*
X34766Y19618D01*
X34693Y19713D01*
X34598Y19785D01*
X34488Y19831D01*
X34469Y19833D01*
D02*
G37*
G36*
X34272D02*
X34252Y19831D01*
X34142Y19785D01*
X34047Y19713D01*
X33975Y19618D01*
X33929Y19508D01*
X33926Y19488D01*
X34272D01*
Y19833D01*
D02*
G37*
G36*
X37502Y19457D02*
X37147D01*
Y19142D01*
X37502D01*
Y19457D01*
D02*
G37*
G36*
X36951D02*
X36596D01*
Y19142D01*
X36951D01*
Y19457D01*
D02*
G37*
G36*
X34814Y19291D02*
X34469D01*
Y18946D01*
X34488Y18949D01*
X34598Y18994D01*
X34693Y19067D01*
X34766Y19161D01*
X34811Y19272D01*
X34814Y19291D01*
D02*
G37*
G36*
X34272D02*
X33926D01*
X33929Y19272D01*
X33975Y19161D01*
X34047Y19067D01*
X34142Y18994D01*
X34252Y18949D01*
X34272Y18946D01*
Y19291D01*
D02*
G37*
G36*
X31518Y19867D02*
X29812D01*
Y18173D01*
X31518D01*
Y19867D01*
D02*
G37*
G36*
X29025D02*
X27318D01*
Y18173D01*
X29025D01*
Y19867D01*
D02*
G37*
G36*
Y17385D02*
X27318D01*
Y15691D01*
X29025D01*
Y17385D01*
D02*
G37*
G36*
X23507Y16047D02*
X22992D01*
X22477D01*
X22482Y16009D01*
X22535Y15882D01*
X22619Y15772D01*
X22685Y15721D01*
X22680Y15662D01*
X22656Y15649D01*
X22564Y15574D01*
X22489Y15482D01*
X22433Y15377D01*
X22398Y15264D01*
X22387Y15146D01*
X22398Y15028D01*
X22433Y14914D01*
X22489Y14809D01*
X22564Y14718D01*
X22656Y14642D01*
X22761Y14586D01*
X22874Y14552D01*
X22992Y14540D01*
X23110Y14552D01*
X23224Y14586D01*
X23328Y14642D01*
X23420Y14718D01*
X23495Y14809D01*
X23551Y14914D01*
X23586Y15028D01*
X23597Y15146D01*
X23586Y15264D01*
X23551Y15377D01*
X23495Y15482D01*
X23420Y15574D01*
X23328Y15649D01*
X23304Y15662D01*
X23299Y15721D01*
X23366Y15772D01*
X23450Y15882D01*
X23502Y16009D01*
X23507Y16047D01*
D02*
G37*
G36*
X15787Y18360D02*
X15656Y18347D01*
X15530Y18308D01*
X15414Y18246D01*
X15312Y18163D01*
X14554Y17405D01*
X14470Y17303D01*
X14408Y17186D01*
X14370Y17060D01*
X14357Y16929D01*
Y15138D01*
X14360Y15105D01*
Y14282D01*
X15699D01*
Y15105D01*
X15702Y15138D01*
Y16651D01*
X16263Y17211D01*
X16347Y17313D01*
X16409Y17430D01*
X16447Y17556D01*
X16460Y17687D01*
X16447Y17818D01*
X16409Y17944D01*
X16347Y18061D01*
X16263Y18163D01*
X16161Y18246D01*
X16045Y18308D01*
X15919Y18347D01*
X15787Y18360D01*
D02*
G37*
G36*
X12283Y18950D02*
X12152Y18937D01*
X12026Y18899D01*
X11910Y18837D01*
X11808Y18753D01*
X11806Y18750D01*
X11803Y18748D01*
X11719Y18646D01*
X11657Y18530D01*
X11619Y18404D01*
X11606Y18273D01*
Y15994D01*
X11604D01*
Y14282D01*
X12943D01*
Y15060D01*
X12951Y15143D01*
Y18228D01*
X12956Y18278D01*
X12943Y18409D01*
X12905Y18535D01*
X12843Y18651D01*
X12759Y18753D01*
X12657Y18837D01*
X12541Y18899D01*
X12415Y18937D01*
X12283Y18950D01*
D02*
G37*
G36*
X31116Y14749D02*
X30857D01*
Y14060D01*
X31116D01*
Y14749D01*
D02*
G37*
G36*
Y13864D02*
X30857D01*
Y13175D01*
X31116D01*
Y13864D01*
D02*
G37*
G36*
X28636Y11992D02*
X28148D01*
Y11516D01*
X28636D01*
Y11992D01*
D02*
G37*
G36*
X27559Y11594D02*
X26988D01*
Y11319D01*
X27559D01*
Y11594D01*
D02*
G37*
G36*
X26791D02*
X26220D01*
Y11319D01*
X26791D01*
Y11594D01*
D02*
G37*
G36*
X43701Y12299D02*
X43614Y12292D01*
X43433Y12249D01*
X43261Y12178D01*
X43103Y12081D01*
X42961Y11960D01*
X42841Y11818D01*
X42744Y11660D01*
X42672Y11488D01*
X42629Y11307D01*
X42622Y11220D01*
X43701D01*
Y12299D01*
D02*
G37*
G36*
X11417D02*
Y11220D01*
X12496D01*
X12489Y11307D01*
X12446Y11488D01*
X12375Y11660D01*
X12277Y11818D01*
X12157Y11960D01*
X12015Y12081D01*
X11857Y12178D01*
X11685Y12249D01*
X11504Y12292D01*
X11417Y12299D01*
D02*
G37*
G36*
X11220D02*
X11134Y12292D01*
X10953Y12249D01*
X10781Y12178D01*
X10623Y12081D01*
X10481Y11960D01*
X10360Y11818D01*
X10263Y11660D01*
X10192Y11488D01*
X10149Y11307D01*
X10142Y11220D01*
X11220D01*
Y12299D01*
D02*
G37*
G36*
X24774Y11417D02*
X24469D01*
Y11112D01*
X24478Y11113D01*
X24579Y11155D01*
X24665Y11221D01*
X24731Y11307D01*
X24773Y11408D01*
X24774Y11417D01*
D02*
G37*
G36*
X24272D02*
X23966D01*
X23967Y11408D01*
X24009Y11307D01*
X24075Y11221D01*
X24162Y11155D01*
X24262Y11113D01*
X24272Y11112D01*
Y11417D01*
D02*
G37*
G36*
X27559Y11122D02*
X26988D01*
Y10846D01*
X27559D01*
Y11122D01*
D02*
G37*
G36*
X26791D02*
X26220D01*
Y10846D01*
X26791D01*
Y11122D01*
D02*
G37*
G36*
X29321Y11319D02*
X28833D01*
Y10843D01*
X29321D01*
Y11319D01*
D02*
G37*
G36*
X28636D02*
X28148D01*
Y10843D01*
X28636D01*
Y11319D01*
D02*
G37*
G36*
X17756Y18320D02*
X17632Y18308D01*
X17514Y18272D01*
X17404Y18213D01*
X17308Y18135D01*
X17230Y18039D01*
X17171Y17929D01*
X17135Y17810D01*
X17123Y17687D01*
X17135Y17564D01*
X17171Y17445D01*
X17230Y17335D01*
X17308Y17239D01*
X17850Y16698D01*
X17850Y16698D01*
X17946Y16619D01*
X18055Y16561D01*
X18174Y16525D01*
X18297Y16513D01*
X18297Y16513D01*
X22557D01*
X22579Y16468D01*
X22535Y16410D01*
X22482Y16282D01*
X22477Y16244D01*
X22992D01*
X23507D01*
X23502Y16282D01*
X23450Y16410D01*
X23405Y16468D01*
X23427Y16513D01*
X23498D01*
X23737Y16273D01*
Y12500D01*
X23749Y12377D01*
X23785Y12258D01*
X23844Y12148D01*
X23878Y12107D01*
Y12008D01*
X23977D01*
X24018Y11974D01*
X24128Y11915D01*
X24129Y11915D01*
X24139Y11860D01*
X24075Y11811D01*
X24009Y11724D01*
X23967Y11624D01*
X23966Y11614D01*
X24370D01*
X24774D01*
X24773Y11624D01*
X24731Y11724D01*
X24665Y11811D01*
X24653Y11820D01*
X24669Y11867D01*
X26870D01*
X26994Y11879D01*
X27112Y11915D01*
X27222Y11974D01*
X27234Y11984D01*
X27756D01*
X27756Y11984D01*
X27895Y12002D01*
X27948Y12024D01*
X28024Y12055D01*
X28135Y12141D01*
X28411Y12416D01*
X28461Y12482D01*
X28511Y12485D01*
X28958Y12038D01*
X28939Y11992D01*
X28833D01*
Y11516D01*
X29321D01*
Y11610D01*
X29367Y11629D01*
X29813Y11183D01*
Y10764D01*
X31144D01*
Y10784D01*
X33661D01*
Y10433D01*
X36890D01*
Y12480D01*
X33661D01*
Y12050D01*
X31144D01*
Y12071D01*
X30161D01*
X29188Y13043D01*
Y13175D01*
X29320D01*
Y13962D01*
Y14749D01*
X29185D01*
Y14828D01*
X27642D01*
Y14092D01*
X27637Y14080D01*
X27622Y13962D01*
Y13144D01*
X27534Y13056D01*
X27167D01*
X27112Y13085D01*
X26994Y13121D01*
X26870Y13133D01*
X25003D01*
Y16535D01*
X24991Y16659D01*
X24955Y16778D01*
X24896Y16887D01*
X24818Y16983D01*
X24207Y17593D01*
X24111Y17672D01*
X24002Y17730D01*
X23883Y17766D01*
X23760Y17779D01*
X18559D01*
X18203Y18135D01*
X18108Y18213D01*
X17998Y18272D01*
X17879Y18308D01*
X17756Y18320D01*
D02*
G37*
%LPD*%
D19*
X30827Y33652D02*
Y36057D01*
X30833Y36063D01*
X30827Y30679D02*
Y32549D01*
X29833Y33691D02*
Y36063D01*
X29833Y36063D01*
X29833Y31102D02*
Y32520D01*
X27339Y28608D02*
X29833Y31102D01*
X28339Y28191D02*
X30827Y30679D01*
X27339Y27071D02*
Y28608D01*
X28339Y27071D02*
Y28191D01*
D22*
X29606Y35039D02*
D03*
X28858D02*
D03*
D23*
X37049Y19043D02*
D03*
Y18295D02*
D03*
D24*
X35276Y15394D02*
D03*
Y11457D02*
D03*
D25*
X28734Y11417D02*
D03*
X30478D02*
D03*
D26*
X28078Y13962D02*
D03*
X28749D02*
D03*
X29418D02*
D03*
X30089D02*
D03*
X30759D02*
D03*
D27*
X29418Y17779D02*
D03*
D28*
X12274Y15138D02*
D03*
X15030D02*
D03*
D29*
X26890Y11220D02*
D03*
Y12520D02*
D03*
D51*
X34669Y22646D02*
D03*
X35669D02*
D03*
X36669D02*
D03*
X27909D02*
D03*
X28909D02*
D03*
X29909D02*
D03*
D52*
X37669D02*
D03*
X30909D02*
D03*
D53*
X35669Y21795D02*
D03*
X28909D02*
D03*
D54*
X34443Y18084D02*
X39760D01*
X34370Y18012D02*
X34443Y18084D01*
X34370Y15984D02*
Y18012D01*
D55*
X12279Y18273D02*
X12283Y18278D01*
X12274Y15138D02*
X12279Y15143D01*
X18297Y17146D02*
X22992D01*
X17756Y17687D02*
X18297Y17146D01*
X30478Y11417D02*
X35236D01*
X22992Y17146D02*
X23760D01*
X24370Y16535D01*
Y12500D02*
Y16535D01*
Y12500D02*
X26870D01*
D56*
X12279Y15143D02*
Y18273D01*
X15030Y15138D02*
Y16929D01*
X15787Y17687D01*
D57*
X26545Y36063D02*
X28833D01*
X24339Y33856D02*
X26545Y36063D01*
X24339Y33071D02*
Y33856D01*
Y31602D02*
Y33071D01*
X21118Y28382D02*
X24339Y31602D01*
X12224Y28382D02*
X21118D01*
X28833Y36063D02*
X28845Y36050D01*
D58*
X30827Y32549D02*
Y33652D01*
X29833Y32520D02*
Y33691D01*
D59*
X28845Y35052D02*
Y36050D01*
X34370Y15984D02*
X34961Y15394D01*
X30300D02*
X34961D01*
X35276D01*
X30089Y15183D02*
X30300Y15394D01*
X30089Y13962D02*
Y15183D01*
X30197Y11417D02*
X30478D01*
X28752Y12863D02*
X30197Y11417D01*
X28752Y12863D02*
Y13959D01*
X35236Y11417D02*
X35276Y11457D01*
X28749Y13962D02*
X28752Y13959D01*
D60*
X40827Y16457D02*
Y20236D01*
X39339Y21724D02*
X40827Y20236D01*
X39339Y24016D02*
Y27071D01*
X40472Y16102D02*
X40827Y16457D01*
X39776Y16102D02*
X40472D01*
X39760Y16087D02*
X39776Y16102D01*
X39339Y21724D02*
Y24016D01*
X27756Y12520D02*
X28031Y12795D01*
X26890Y12520D02*
X27756D01*
D61*
X28078Y12842D02*
Y13962D01*
X28031Y12795D02*
X28078Y12842D01*
D62*
X22992Y15146D02*
D03*
Y16146D02*
D03*
X39760Y17087D02*
D03*
Y16087D02*
D03*
D63*
X22992Y17146D02*
D03*
X39760Y18087D02*
D03*
D64*
X28833Y36063D02*
D03*
X40990Y36063D02*
D03*
X15136Y22589D02*
D03*
X21181Y22559D02*
D03*
D65*
X29833Y36063D02*
D03*
X30833D02*
D03*
X31833D02*
D03*
X36990Y36063D02*
D03*
X35990D02*
D03*
X34990D02*
D03*
X33990D02*
D03*
X39990D02*
D03*
X38990D02*
D03*
X37990D02*
D03*
X34370Y19390D02*
D03*
X12224Y28382D02*
D03*
Y29382D02*
D03*
Y30382D02*
D03*
Y31382D02*
D03*
Y25382D02*
D03*
Y26382D02*
D03*
Y27382D02*
D03*
X18136Y22589D02*
D03*
X17136D02*
D03*
X16136D02*
D03*
X22165Y22559D02*
D03*
X23150D02*
D03*
X24134D02*
D03*
D66*
X34370Y18012D02*
D03*
X12224Y24382D02*
D03*
D67*
X24370Y12500D02*
D03*
D68*
Y11516D02*
D03*
X40126Y24016D02*
D03*
D69*
X27874Y16339D02*
D03*
X28661D02*
D03*
X29449D02*
D03*
X30236D02*
D03*
X31024D02*
D03*
Y17283D02*
D03*
X30236D02*
D03*
X29449D02*
D03*
X28661D02*
D03*
X27874D02*
D03*
X31024Y18228D02*
D03*
X30236D02*
D03*
X29449D02*
D03*
X28661D02*
D03*
X27874D02*
D03*
X31024Y19173D02*
D03*
X30236D02*
D03*
X29449D02*
D03*
X28661D02*
D03*
X27874D02*
D03*
D70*
X15787Y17687D02*
D03*
X17756D02*
D03*
D71*
X11319Y36122D02*
D03*
X43799Y23622D02*
D03*
Y36122D02*
D03*
Y11122D02*
D03*
X11319D02*
D03*
D72*
X19606Y35157D02*
D03*
X17638D02*
D03*
X13701D02*
D03*
X15669D02*
D03*
X12283Y20246D02*
D03*
Y18278D02*
D03*
D73*
X22339Y27071D02*
D03*
X23339D02*
D03*
X24339D02*
D03*
X25339D02*
D03*
X26339D02*
D03*
X27339D02*
D03*
X28339D02*
D03*
X29339D02*
D03*
X30339D02*
D03*
X31339D02*
D03*
X32339D02*
D03*
X33339D02*
D03*
X34339D02*
D03*
X35339D02*
D03*
X36339D02*
D03*
X37339D02*
D03*
X38339D02*
D03*
X39339D02*
D03*
X40339D02*
D03*
X41339D02*
D03*
Y33071D02*
D03*
X40339D02*
D03*
X39339D02*
D03*
X38339D02*
D03*
X37339D02*
D03*
X36339D02*
D03*
X35339D02*
D03*
X34339D02*
D03*
X33339D02*
D03*
X32339D02*
D03*
X31339D02*
D03*
X30339D02*
D03*
X29339D02*
D03*
X28339D02*
D03*
X27339D02*
D03*
X26339D02*
D03*
X25339D02*
D03*
X24339D02*
D03*
X23339D02*
D03*
X22339D02*
D03*
X19508Y24142D02*
D03*
Y27165D02*
D03*
X18140Y24142D02*
D03*
Y27165D02*
D03*
D74*
X39339Y24016D02*
D03*
M02*
