G04*
G04 #@! TF.GenerationSoftware,Altium Limited,Altium Designer,19.1.8 (144)*
G04*
G04 Layer_Color=32896*
%FSLAX24Y24*%
%MOIN*%
G70*
G01*
G75*
%ADD12C,0.0059*%
%ADD14C,0.0100*%
D12*
X30768Y35246D02*
X31161D01*
X30768Y34459D02*
X31161D01*
Y35246D01*
X29685Y34459D02*
Y35246D01*
X30079D01*
X29685Y34459D02*
X30079D01*
X28622Y13278D02*
X29016D01*
X28622Y14065D02*
X29016D01*
X28622Y13278D02*
Y14065D01*
X30098Y13278D02*
Y14065D01*
X29705Y13278D02*
X30098D01*
X29705Y14065D02*
X30098D01*
D14*
X29173Y34626D02*
X29003D01*
X29088D01*
Y35138D01*
X29173Y35052D01*
X28747D02*
X28662Y35138D01*
X28491D01*
X28406Y35052D01*
Y34711D01*
X28491Y34626D01*
X28662D01*
X28747Y34711D01*
Y35052D01*
X28235Y34626D02*
Y35138D01*
Y34797D02*
X27979Y34967D01*
X28235Y34797D02*
X27979Y34626D01*
X26624Y12736D02*
X26795D01*
X26709D01*
Y12395D01*
X26624D01*
X27050Y12736D02*
Y12395D01*
X27306D01*
X27391Y12480D01*
Y12736D01*
X27562Y12907D02*
Y12395D01*
X27818D01*
X27903Y12480D01*
Y12651D01*
X27818Y12736D01*
X27562D01*
X28074Y12395D02*
Y12651D01*
X28159Y12736D01*
X28415D01*
Y12395D01*
X28671Y12310D02*
Y12395D01*
X28585D01*
X28756D01*
X28671D01*
Y12651D01*
X28756Y12736D01*
X29523D02*
X29694D01*
X29609D01*
Y12395D01*
X29523D01*
X29950Y12736D02*
X30206D01*
X30291Y12651D01*
X30206Y12566D01*
X30035D01*
X29950Y12480D01*
X30035Y12395D01*
X30291D01*
X30973Y12736D02*
X31144D01*
X31058D01*
Y12225D01*
X30973Y12310D01*
X31740Y12736D02*
X31399D01*
X31740Y12395D01*
Y12310D01*
X31655Y12225D01*
X31485D01*
X31399Y12310D01*
X31911Y12225D02*
Y12566D01*
X32082Y12736D01*
X32252Y12566D01*
Y12225D01*
X26709Y11237D02*
X26624Y11152D01*
X26453D01*
X26368Y11237D01*
Y11322D01*
X26453Y11408D01*
X26624D01*
X26709Y11493D01*
Y11578D01*
X26624Y11663D01*
X26453D01*
X26368Y11578D01*
X26965Y11663D02*
X27136D01*
X27221Y11578D01*
Y11408D01*
X27136Y11322D01*
X26965D01*
X26880Y11408D01*
Y11578D01*
X26965Y11663D01*
X27391D02*
X27562D01*
X27477D01*
Y11152D01*
X27391D01*
X28159D02*
Y11663D01*
X27903D01*
X27818Y11578D01*
Y11408D01*
X27903Y11322D01*
X28159D01*
X28585Y11663D02*
X28415D01*
X28329Y11578D01*
Y11408D01*
X28415Y11322D01*
X28585D01*
X28671Y11408D01*
Y11493D01*
X28329D01*
X28841Y11322D02*
Y11663D01*
Y11493D01*
X28926Y11408D01*
X29012Y11322D01*
X29097D01*
X29950Y11663D02*
X30120D01*
X30205Y11578D01*
Y11408D01*
X30120Y11322D01*
X29950D01*
X29864Y11408D01*
Y11578D01*
X29950Y11663D01*
X30376D02*
Y11322D01*
X30632D01*
X30717Y11408D01*
Y11663D01*
X30888D02*
X31058D01*
X30973D01*
Y11152D01*
X30888D01*
X31314Y11322D02*
Y11578D01*
X31399Y11663D01*
X31655D01*
Y11749D01*
X31570Y11834D01*
X31485D01*
X31655Y11663D02*
Y11322D01*
X32337Y11663D02*
X32508D01*
X32423D01*
Y11322D01*
X32337D01*
X32849Y11663D02*
Y11237D01*
Y11408D01*
X32764D01*
X32934D01*
X32849D01*
Y11237D01*
X32934Y11152D01*
X32441Y13481D02*
X32356Y13396D01*
X32185D01*
X32100Y13481D01*
Y13822D01*
X32185Y13907D01*
X32356D01*
X32441Y13822D01*
Y13481D01*
X30522Y13927D02*
Y13327D01*
X30821D01*
X30921Y13427D01*
Y13627D01*
X30821Y13727D01*
X30522D01*
X30721D02*
X30921Y13927D01*
X31421D02*
Y13327D01*
X31121Y13627D01*
X31521D01*
X32697Y34567D02*
Y35167D01*
X32397D01*
X32297Y35067D01*
Y34867D01*
X32397Y34767D01*
X32697D01*
X32497D02*
X32297Y34567D01*
X31697D02*
X32097D01*
X31697Y34967D01*
Y35067D01*
X31797Y35167D01*
X31997D01*
X32097Y35067D01*
M02*
